<?xml version="1.0" encoding="utf-8"?>
<svg xmlns="http://www.w3.org/2000/svg" xmlns:xlink="http://www.w3.org/1999/xlink" xml:space="preserve" width="1257.3333333333" height="1279.5277777778" viewBox="0 0 1257.3333333333 1279.5277777778"><g transform="scale(52.388888888889)" fill="#000000"><path d="M17.6,0H6.4c-1,0-1.8,0.8-1.8,1.8v20.4c0,1,0.8,1.8,1.8,1.8h11.1c1,0,1.8-0.8,1.8-1.8V1.8C19.4,0.8,18.6,0,17.6,0z M11.2,2.3h2.7c0.1,0,0.2,0.1,0.2,0.2S14,2.7,13.9,2.7h-2.7c-0.1,0-0.2-0.1-0.2-0.2S11.1,2.3,11.2,2.3z M10.1,2.3 c0.1,0,0.2,0.1,0.2,0.2s-0.1,0.2-0.2,0.2c-0.1,0-0.2-0.1-0.2-0.2S10,2.3,10.1,2.3z M19,19H5V5h14V19z"/></g><g fill="#000000">
<g transform="translate(428.66666666667,300.66666666667) scale(2.7466666666667)"><rect width="6" height="6"/></g>
<g transform="translate(492.66666666667,300.66666666667) scale(2.7466666666667)"><rect width="6" height="6"/></g>
<g transform="translate(524.66666666667,300.66666666667) scale(2.7466666666667)"><rect width="6" height="6"/></g>
<g transform="translate(540.66666666667,300.66666666667) scale(2.7466666666667)"><rect width="6" height="6"/></g>
<g transform="translate(556.66666666667,300.66666666667) scale(2.7466666666667)"><rect width="6" height="6"/></g>
<g transform="translate(572.66666666667,300.66666666667) scale(2.7466666666667)"><rect width="6" height="6"/></g>
<g transform="translate(620.66666666667,300.66666666667) scale(2.7466666666667)"><rect width="6" height="6"/></g>
<g transform="translate(652.66666666667,300.66666666667) scale(2.7466666666667)"><rect width="6" height="6"/></g>
<g transform="translate(668.66666666667,300.66666666667) scale(2.7466666666667)"><rect width="6" height="6"/></g>
<g transform="translate(748.66666666667,300.66666666667) scale(2.7466666666667)"><rect width="6" height="6"/></g>
<g transform="translate(764.66666666667,300.66666666667) scale(2.7466666666667)"><rect width="6" height="6"/></g>
<g transform="translate(796.66666666667,300.66666666667) scale(2.7466666666667)"><rect width="6" height="6"/></g>
<g transform="translate(444.66666666667,316.66666666667) scale(2.7466666666667)"><rect width="6" height="6"/></g>
<g transform="translate(460.66666666667,316.66666666667) scale(2.7466666666667)"><rect width="6" height="6"/></g>
<g transform="translate(492.66666666667,316.66666666667) scale(2.7466666666667)"><rect width="6" height="6"/></g>
<g transform="translate(508.66666666667,316.66666666667) scale(2.7466666666667)"><rect width="6" height="6"/></g>
<g transform="translate(524.66666666667,316.66666666667) scale(2.7466666666667)"><rect width="6" height="6"/></g>
<g transform="translate(556.66666666667,316.66666666667) scale(2.7466666666667)"><rect width="6" height="6"/></g>
<g transform="translate(620.66666666667,316.66666666667) scale(2.7466666666667)"><rect width="6" height="6"/></g>
<g transform="translate(636.66666666667,316.66666666667) scale(2.7466666666667)"><rect width="6" height="6"/></g>
<g transform="translate(684.66666666667,316.66666666667) scale(2.7466666666667)"><rect width="6" height="6"/></g>
<g transform="translate(732.66666666667,316.66666666667) scale(2.7466666666667)"><rect width="6" height="6"/></g>
<g transform="translate(764.66666666667,316.66666666667) scale(2.7466666666667)"><rect width="6" height="6"/></g>
<g transform="translate(508.66666666667,332.66666666667) scale(2.7466666666667)"><rect width="6" height="6"/></g>
<g transform="translate(524.66666666667,332.66666666667) scale(2.7466666666667)"><rect width="6" height="6"/></g>
<g transform="translate(540.66666666667,332.66666666667) scale(2.7466666666667)"><rect width="6" height="6"/></g>
<g transform="translate(556.66666666667,332.66666666667) scale(2.7466666666667)"><rect width="6" height="6"/></g>
<g transform="translate(572.66666666667,332.66666666667) scale(2.7466666666667)"><rect width="6" height="6"/></g>
<g transform="translate(588.66666666667,332.66666666667) scale(2.7466666666667)"><rect width="6" height="6"/></g>
<g transform="translate(620.66666666667,332.66666666667) scale(2.7466666666667)"><rect width="6" height="6"/></g>
<g transform="translate(636.66666666667,332.66666666667) scale(2.7466666666667)"><rect width="6" height="6"/></g>
<g transform="translate(652.66666666667,332.66666666667) scale(2.7466666666667)"><rect width="6" height="6"/></g>
<g transform="translate(668.66666666667,332.66666666667) scale(2.7466666666667)"><rect width="6" height="6"/></g>
<g transform="translate(684.66666666667,332.66666666667) scale(2.7466666666667)"><rect width="6" height="6"/></g>
<g transform="translate(716.66666666667,332.66666666667) scale(2.7466666666667)"><rect width="6" height="6"/></g>
<g transform="translate(764.66666666667,332.66666666667) scale(2.7466666666667)"><rect width="6" height="6"/></g>
<g transform="translate(780.66666666667,332.66666666667) scale(2.7466666666667)"><rect width="6" height="6"/></g>
<g transform="translate(812.66666666667,332.66666666667) scale(2.7466666666667)"><rect width="6" height="6"/></g>
<g transform="translate(444.66666666667,348.66666666667) scale(2.7466666666667)"><rect width="6" height="6"/></g>
<g transform="translate(476.66666666667,348.66666666667) scale(2.7466666666667)"><rect width="6" height="6"/></g>
<g transform="translate(492.66666666667,348.66666666667) scale(2.7466666666667)"><rect width="6" height="6"/></g>
<g transform="translate(540.66666666667,348.66666666667) scale(2.7466666666667)"><rect width="6" height="6"/></g>
<g transform="translate(556.66666666667,348.66666666667) scale(2.7466666666667)"><rect width="6" height="6"/></g>
<g transform="translate(572.66666666667,348.66666666667) scale(2.7466666666667)"><rect width="6" height="6"/></g>
<g transform="translate(588.66666666667,348.66666666667) scale(2.7466666666667)"><rect width="6" height="6"/></g>
<g transform="translate(620.66666666667,348.66666666667) scale(2.7466666666667)"><rect width="6" height="6"/></g>
<g transform="translate(636.66666666667,348.66666666667) scale(2.7466666666667)"><rect width="6" height="6"/></g>
<g transform="translate(684.66666666667,348.66666666667) scale(2.7466666666667)"><rect width="6" height="6"/></g>
<g transform="translate(732.66666666667,348.66666666667) scale(2.7466666666667)"><rect width="6" height="6"/></g>
<g transform="translate(796.66666666667,348.66666666667) scale(2.7466666666667)"><rect width="6" height="6"/></g>
<g transform="translate(812.66666666667,348.66666666667) scale(2.7466666666667)"><rect width="6" height="6"/></g>
<g transform="translate(428.66666666667,364.66666666667) scale(2.7466666666667)"><rect width="6" height="6"/></g>
<g transform="translate(444.66666666667,364.66666666667) scale(2.7466666666667)"><rect width="6" height="6"/></g>
<g transform="translate(460.66666666667,364.66666666667) scale(2.7466666666667)"><rect width="6" height="6"/></g>
<g transform="translate(524.66666666667,364.66666666667) scale(2.7466666666667)"><rect width="6" height="6"/></g>
<g transform="translate(540.66666666667,364.66666666667) scale(2.7466666666667)"><rect width="6" height="6"/></g>
<g transform="translate(572.66666666667,364.66666666667) scale(2.7466666666667)"><rect width="6" height="6"/></g>
<g transform="translate(588.66666666667,364.66666666667) scale(2.7466666666667)"><rect width="6" height="6"/></g>
<g transform="translate(604.66666666667,364.66666666667) scale(2.7466666666667)"><rect width="6" height="6"/></g>
<g transform="translate(716.66666666667,364.66666666667) scale(2.7466666666667)"><rect width="6" height="6"/></g>
<g transform="translate(748.66666666667,364.66666666667) scale(2.7466666666667)"><rect width="6" height="6"/></g>
<g transform="translate(764.66666666667,364.66666666667) scale(2.7466666666667)"><rect width="6" height="6"/></g>
<g transform="translate(780.66666666667,364.66666666667) scale(2.7466666666667)"><rect width="6" height="6"/></g>
<g transform="translate(796.66666666667,364.66666666667) scale(2.7466666666667)"><rect width="6" height="6"/></g>
<g transform="translate(812.66666666667,364.66666666667) scale(2.7466666666667)"><rect width="6" height="6"/></g>
<g transform="translate(428.66666666667,380.66666666667) scale(2.7466666666667)"><rect width="6" height="6"/></g>
<g transform="translate(460.66666666667,380.66666666667) scale(2.7466666666667)"><rect width="6" height="6"/></g>
<g transform="translate(476.66666666667,380.66666666667) scale(2.7466666666667)"><rect width="6" height="6"/></g>
<g transform="translate(524.66666666667,380.66666666667) scale(2.7466666666667)"><rect width="6" height="6"/></g>
<g transform="translate(540.66666666667,380.66666666667) scale(2.7466666666667)"><rect width="6" height="6"/></g>
<g transform="translate(572.66666666667,380.66666666667) scale(2.7466666666667)"><rect width="6" height="6"/></g>
<g transform="translate(668.66666666667,380.66666666667) scale(2.7466666666667)"><rect width="6" height="6"/></g>
<g transform="translate(684.66666666667,380.66666666667) scale(2.7466666666667)"><rect width="6" height="6"/></g>
<g transform="translate(700.66666666667,380.66666666667) scale(2.7466666666667)"><rect width="6" height="6"/></g>
<g transform="translate(732.66666666667,380.66666666667) scale(2.7466666666667)"><rect width="6" height="6"/></g>
<g transform="translate(812.66666666667,380.66666666667) scale(2.7466666666667)"><rect width="6" height="6"/></g>
<g transform="translate(428.66666666667,396.66666666667) scale(2.7466666666667)"><rect width="6" height="6"/></g>
<g transform="translate(460.66666666667,396.66666666667) scale(2.7466666666667)"><rect width="6" height="6"/></g>
<g transform="translate(492.66666666667,396.66666666667) scale(2.7466666666667)"><rect width="6" height="6"/></g>
<g transform="translate(524.66666666667,396.66666666667) scale(2.7466666666667)"><rect width="6" height="6"/></g>
<g transform="translate(556.66666666667,396.66666666667) scale(2.7466666666667)"><rect width="6" height="6"/></g>
<g transform="translate(588.66666666667,396.66666666667) scale(2.7466666666667)"><rect width="6" height="6"/></g>
<g transform="translate(620.66666666667,396.66666666667) scale(2.7466666666667)"><rect width="6" height="6"/></g>
<g transform="translate(652.66666666667,396.66666666667) scale(2.7466666666667)"><rect width="6" height="6"/></g>
<g transform="translate(684.66666666667,396.66666666667) scale(2.7466666666667)"><rect width="6" height="6"/></g>
<g transform="translate(716.66666666667,396.66666666667) scale(2.7466666666667)"><rect width="6" height="6"/></g>
<g transform="translate(748.66666666667,396.66666666667) scale(2.7466666666667)"><rect width="6" height="6"/></g>
<g transform="translate(780.66666666667,396.66666666667) scale(2.7466666666667)"><rect width="6" height="6"/></g>
<g transform="translate(812.66666666667,396.66666666667) scale(2.7466666666667)"><rect width="6" height="6"/></g>
<g transform="translate(444.66666666667,412.66666666667) scale(2.7466666666667)"><rect width="6" height="6"/></g>
<g transform="translate(460.66666666667,412.66666666667) scale(2.7466666666667)"><rect width="6" height="6"/></g>
<g transform="translate(476.66666666667,412.66666666667) scale(2.7466666666667)"><rect width="6" height="6"/></g>
<g transform="translate(524.66666666667,412.66666666667) scale(2.7466666666667)"><rect width="6" height="6"/></g>
<g transform="translate(556.66666666667,412.66666666667) scale(2.7466666666667)"><rect width="6" height="6"/></g>
<g transform="translate(572.66666666667,412.66666666667) scale(2.7466666666667)"><rect width="6" height="6"/></g>
<g transform="translate(588.66666666667,412.66666666667) scale(2.7466666666667)"><rect width="6" height="6"/></g>
<g transform="translate(604.66666666667,412.66666666667) scale(2.7466666666667)"><rect width="6" height="6"/></g>
<g transform="translate(620.66666666667,412.66666666667) scale(2.7466666666667)"><rect width="6" height="6"/></g>
<g transform="translate(652.66666666667,412.66666666667) scale(2.7466666666667)"><rect width="6" height="6"/></g>
<g transform="translate(668.66666666667,412.66666666667) scale(2.7466666666667)"><rect width="6" height="6"/></g>
<g transform="translate(716.66666666667,412.66666666667) scale(2.7466666666667)"><rect width="6" height="6"/></g>
<g transform="translate(748.66666666667,412.66666666667) scale(2.7466666666667)"><rect width="6" height="6"/></g>
<g transform="translate(812.66666666667,412.66666666667) scale(2.7466666666667)"><rect width="6" height="6"/></g>
<g transform="translate(316.66666666667,428.66666666667) scale(2.7466666666667)"><rect width="6" height="6"/></g>
<g transform="translate(332.66666666667,428.66666666667) scale(2.7466666666667)"><rect width="6" height="6"/></g>
<g transform="translate(348.66666666667,428.66666666667) scale(2.7466666666667)"><rect width="6" height="6"/></g>
<g transform="translate(364.66666666667,428.66666666667) scale(2.7466666666667)"><rect width="6" height="6"/></g>
<g transform="translate(380.66666666667,428.66666666667) scale(2.7466666666667)"><rect width="6" height="6"/></g>
<g transform="translate(396.66666666667,428.66666666667) scale(2.7466666666667)"><rect width="6" height="6"/></g>
<g transform="translate(412.66666666667,428.66666666667) scale(2.7466666666667)"><rect width="6" height="6"/></g>
<g transform="translate(460.66666666667,428.66666666667) scale(2.7466666666667)"><rect width="6" height="6"/></g>
<g transform="translate(492.66666666667,428.66666666667) scale(2.7466666666667)"><rect width="6" height="6"/></g>
<g transform="translate(572.66666666667,428.66666666667) scale(2.7466666666667)"><rect width="6" height="6"/></g>
<g transform="translate(588.66666666667,428.66666666667) scale(2.7466666666667)"><rect width="6" height="6"/></g>
<g transform="translate(604.66666666667,428.66666666667) scale(2.7466666666667)"><rect width="6" height="6"/></g>
<g transform="translate(620.66666666667,428.66666666667) scale(2.7466666666667)"><rect width="6" height="6"/></g>
<g transform="translate(636.66666666667,428.66666666667) scale(2.7466666666667)"><rect width="6" height="6"/></g>
<g transform="translate(652.66666666667,428.66666666667) scale(2.7466666666667)"><rect width="6" height="6"/></g>
<g transform="translate(668.66666666667,428.66666666667) scale(2.7466666666667)"><rect width="6" height="6"/></g>
<g transform="translate(700.66666666667,428.66666666667) scale(2.7466666666667)"><rect width="6" height="6"/></g>
<g transform="translate(716.66666666667,428.66666666667) scale(2.7466666666667)"><rect width="6" height="6"/></g>
<g transform="translate(748.66666666667,428.66666666667) scale(2.7466666666667)"><rect width="6" height="6"/></g>
<g transform="translate(764.66666666667,428.66666666667) scale(2.7466666666667)"><rect width="6" height="6"/></g>
<g transform="translate(860.66666666667,428.66666666667) scale(2.7466666666667)"><rect width="6" height="6"/></g>
<g transform="translate(876.66666666667,428.66666666667) scale(2.7466666666667)"><rect width="6" height="6"/></g>
<g transform="translate(940.66666666667,428.66666666667) scale(2.7466666666667)"><rect width="6" height="6"/></g>
<g transform="translate(332.66666666667,444.66666666667) scale(2.7466666666667)"><rect width="6" height="6"/></g>
<g transform="translate(380.66666666667,444.66666666667) scale(2.7466666666667)"><rect width="6" height="6"/></g>
<g transform="translate(412.66666666667,444.66666666667) scale(2.7466666666667)"><rect width="6" height="6"/></g>
<g transform="translate(428.66666666667,444.66666666667) scale(2.7466666666667)"><rect width="6" height="6"/></g>
<g transform="translate(444.66666666667,444.66666666667) scale(2.7466666666667)"><rect width="6" height="6"/></g>
<g transform="translate(460.66666666667,444.66666666667) scale(2.7466666666667)"><rect width="6" height="6"/></g>
<g transform="translate(476.66666666667,444.66666666667) scale(2.7466666666667)"><rect width="6" height="6"/></g>
<g transform="translate(540.66666666667,444.66666666667) scale(2.7466666666667)"><rect width="6" height="6"/></g>
<g transform="translate(604.66666666667,444.66666666667) scale(2.7466666666667)"><rect width="6" height="6"/></g>
<g transform="translate(636.66666666667,444.66666666667) scale(2.7466666666667)"><rect width="6" height="6"/></g>
<g transform="translate(668.66666666667,444.66666666667) scale(2.7466666666667)"><rect width="6" height="6"/></g>
<g transform="translate(716.66666666667,444.66666666667) scale(2.7466666666667)"><rect width="6" height="6"/></g>
<g transform="translate(748.66666666667,444.66666666667) scale(2.7466666666667)"><rect width="6" height="6"/></g>
<g transform="translate(780.66666666667,444.66666666667) scale(2.7466666666667)"><rect width="6" height="6"/></g>
<g transform="translate(796.66666666667,444.66666666667) scale(2.7466666666667)"><rect width="6" height="6"/></g>
<g transform="translate(812.66666666667,444.66666666667) scale(2.7466666666667)"><rect width="6" height="6"/></g>
<g transform="translate(828.66666666667,444.66666666667) scale(2.7466666666667)"><rect width="6" height="6"/></g>
<g transform="translate(844.66666666667,444.66666666667) scale(2.7466666666667)"><rect width="6" height="6"/></g>
<g transform="translate(860.66666666667,444.66666666667) scale(2.7466666666667)"><rect width="6" height="6"/></g>
<g transform="translate(876.66666666667,444.66666666667) scale(2.7466666666667)"><rect width="6" height="6"/></g>
<g transform="translate(908.66666666667,444.66666666667) scale(2.7466666666667)"><rect width="6" height="6"/></g>
<g transform="translate(300.66666666667,460.66666666667) scale(2.7466666666667)"><rect width="6" height="6"/></g>
<g transform="translate(316.66666666667,460.66666666667) scale(2.7466666666667)"><rect width="6" height="6"/></g>
<g transform="translate(364.66666666667,460.66666666667) scale(2.7466666666667)"><rect width="6" height="6"/></g>
<g transform="translate(396.66666666667,460.66666666667) scale(2.7466666666667)"><rect width="6" height="6"/></g>
<g transform="translate(428.66666666667,460.66666666667) scale(2.7466666666667)"><rect width="6" height="6"/></g>
<g transform="translate(460.66666666667,460.66666666667) scale(2.7466666666667)"><rect width="6" height="6"/></g>
<g transform="translate(492.66666666667,460.66666666667) scale(2.7466666666667)"><rect width="6" height="6"/></g>
<g transform="translate(540.66666666667,460.66666666667) scale(2.7466666666667)"><rect width="6" height="6"/></g>
<g transform="translate(572.66666666667,460.66666666667) scale(2.7466666666667)"><rect width="6" height="6"/></g>
<g transform="translate(588.66666666667,460.66666666667) scale(2.7466666666667)"><rect width="6" height="6"/></g>
<g transform="translate(604.66666666667,460.66666666667) scale(2.7466666666667)"><rect width="6" height="6"/></g>
<g transform="translate(620.66666666667,460.66666666667) scale(2.7466666666667)"><rect width="6" height="6"/></g>
<g transform="translate(652.66666666667,460.66666666667) scale(2.7466666666667)"><rect width="6" height="6"/></g>
<g transform="translate(732.66666666667,460.66666666667) scale(2.7466666666667)"><rect width="6" height="6"/></g>
<g transform="translate(748.66666666667,460.66666666667) scale(2.7466666666667)"><rect width="6" height="6"/></g>
<g transform="translate(764.66666666667,460.66666666667) scale(2.7466666666667)"><rect width="6" height="6"/></g>
<g transform="translate(780.66666666667,460.66666666667) scale(2.7466666666667)"><rect width="6" height="6"/></g>
<g transform="translate(812.66666666667,460.66666666667) scale(2.7466666666667)"><rect width="6" height="6"/></g>
<g transform="translate(828.66666666667,460.66666666667) scale(2.7466666666667)"><rect width="6" height="6"/></g>
<g transform="translate(300.66666666667,476.66666666667) scale(2.7466666666667)"><rect width="6" height="6"/></g>
<g transform="translate(332.66666666667,476.66666666667) scale(2.7466666666667)"><rect width="6" height="6"/></g>
<g transform="translate(348.66666666667,476.66666666667) scale(2.7466666666667)"><rect width="6" height="6"/></g>
<g transform="translate(364.66666666667,476.66666666667) scale(2.7466666666667)"><rect width="6" height="6"/></g>
<g transform="translate(412.66666666667,476.66666666667) scale(2.7466666666667)"><rect width="6" height="6"/></g>
<g transform="translate(428.66666666667,476.66666666667) scale(2.7466666666667)"><rect width="6" height="6"/></g>
<g transform="translate(460.66666666667,476.66666666667) scale(2.7466666666667)"><rect width="6" height="6"/></g>
<g transform="translate(572.66666666667,476.66666666667) scale(2.7466666666667)"><rect width="6" height="6"/></g>
<g transform="translate(588.66666666667,476.66666666667) scale(2.7466666666667)"><rect width="6" height="6"/></g>
<g transform="translate(604.66666666667,476.66666666667) scale(2.7466666666667)"><rect width="6" height="6"/></g>
<g transform="translate(620.66666666667,476.66666666667) scale(2.7466666666667)"><rect width="6" height="6"/></g>
<g transform="translate(652.66666666667,476.66666666667) scale(2.7466666666667)"><rect width="6" height="6"/></g>
<g transform="translate(668.66666666667,476.66666666667) scale(2.7466666666667)"><rect width="6" height="6"/></g>
<g transform="translate(684.66666666667,476.66666666667) scale(2.7466666666667)"><rect width="6" height="6"/></g>
<g transform="translate(716.66666666667,476.66666666667) scale(2.7466666666667)"><rect width="6" height="6"/></g>
<g transform="translate(732.66666666667,476.66666666667) scale(2.7466666666667)"><rect width="6" height="6"/></g>
<g transform="translate(748.66666666667,476.66666666667) scale(2.7466666666667)"><rect width="6" height="6"/></g>
<g transform="translate(780.66666666667,476.66666666667) scale(2.7466666666667)"><rect width="6" height="6"/></g>
<g transform="translate(796.66666666667,476.66666666667) scale(2.7466666666667)"><rect width="6" height="6"/></g>
<g transform="translate(812.66666666667,476.66666666667) scale(2.7466666666667)"><rect width="6" height="6"/></g>
<g transform="translate(828.66666666667,476.66666666667) scale(2.7466666666667)"><rect width="6" height="6"/></g>
<g transform="translate(844.66666666667,476.66666666667) scale(2.7466666666667)"><rect width="6" height="6"/></g>
<g transform="translate(860.66666666667,476.66666666667) scale(2.7466666666667)"><rect width="6" height="6"/></g>
<g transform="translate(892.66666666667,476.66666666667) scale(2.7466666666667)"><rect width="6" height="6"/></g>
<g transform="translate(924.66666666667,476.66666666667) scale(2.7466666666667)"><rect width="6" height="6"/></g>
<g transform="translate(316.66666666667,492.66666666667) scale(2.7466666666667)"><rect width="6" height="6"/></g>
<g transform="translate(348.66666666667,492.66666666667) scale(2.7466666666667)"><rect width="6" height="6"/></g>
<g transform="translate(396.66666666667,492.66666666667) scale(2.7466666666667)"><rect width="6" height="6"/></g>
<g transform="translate(412.66666666667,492.66666666667) scale(2.7466666666667)"><rect width="6" height="6"/></g>
<g transform="translate(428.66666666667,492.66666666667) scale(2.7466666666667)"><rect width="6" height="6"/></g>
<g transform="translate(444.66666666667,492.66666666667) scale(2.7466666666667)"><rect width="6" height="6"/></g>
<g transform="translate(476.66666666667,492.66666666667) scale(2.7466666666667)"><rect width="6" height="6"/></g>
<g transform="translate(492.66666666667,492.66666666667) scale(2.7466666666667)"><rect width="6" height="6"/></g>
<g transform="translate(508.66666666667,492.66666666667) scale(2.7466666666667)"><rect width="6" height="6"/></g>
<g transform="translate(524.66666666667,492.66666666667) scale(2.7466666666667)"><rect width="6" height="6"/></g>
<g transform="translate(540.66666666667,492.66666666667) scale(2.7466666666667)"><rect width="6" height="6"/></g>
<g transform="translate(556.66666666667,492.66666666667) scale(2.7466666666667)"><rect width="6" height="6"/></g>
<g transform="translate(572.66666666667,492.66666666667) scale(2.7466666666667)"><rect width="6" height="6"/></g>
<g transform="translate(588.66666666667,492.66666666667) scale(2.7466666666667)"><rect width="6" height="6"/></g>
<g transform="translate(604.66666666667,492.66666666667) scale(2.7466666666667)"><rect width="6" height="6"/></g>
<g transform="translate(636.66666666667,492.66666666667) scale(2.7466666666667)"><rect width="6" height="6"/></g>
<g transform="translate(652.66666666667,492.66666666667) scale(2.7466666666667)"><rect width="6" height="6"/></g>
<g transform="translate(700.66666666667,492.66666666667) scale(2.7466666666667)"><rect width="6" height="6"/></g>
<g transform="translate(716.66666666667,492.66666666667) scale(2.7466666666667)"><rect width="6" height="6"/></g>
<g transform="translate(764.66666666667,492.66666666667) scale(2.7466666666667)"><rect width="6" height="6"/></g>
<g transform="translate(796.66666666667,492.66666666667) scale(2.7466666666667)"><rect width="6" height="6"/></g>
<g transform="translate(812.66666666667,492.66666666667) scale(2.7466666666667)"><rect width="6" height="6"/></g>
<g transform="translate(892.66666666667,492.66666666667) scale(2.7466666666667)"><rect width="6" height="6"/></g>
<g transform="translate(908.66666666667,492.66666666667) scale(2.7466666666667)"><rect width="6" height="6"/></g>
<g transform="translate(332.66666666667,508.66666666667) scale(2.7466666666667)"><rect width="6" height="6"/></g>
<g transform="translate(348.66666666667,508.66666666667) scale(2.7466666666667)"><rect width="6" height="6"/></g>
<g transform="translate(412.66666666667,508.66666666667) scale(2.7466666666667)"><rect width="6" height="6"/></g>
<g transform="translate(428.66666666667,508.66666666667) scale(2.7466666666667)"><rect width="6" height="6"/></g>
<g transform="translate(492.66666666667,508.66666666667) scale(2.7466666666667)"><rect width="6" height="6"/></g>
<g transform="translate(508.66666666667,508.66666666667) scale(2.7466666666667)"><rect width="6" height="6"/></g>
<g transform="translate(540.66666666667,508.66666666667) scale(2.7466666666667)"><rect width="6" height="6"/></g>
<g transform="translate(572.66666666667,508.66666666667) scale(2.7466666666667)"><rect width="6" height="6"/></g>
<g transform="translate(588.66666666667,508.66666666667) scale(2.7466666666667)"><rect width="6" height="6"/></g>
<g transform="translate(684.66666666667,508.66666666667) scale(2.7466666666667)"><rect width="6" height="6"/></g>
<g transform="translate(716.66666666667,508.66666666667) scale(2.7466666666667)"><rect width="6" height="6"/></g>
<g transform="translate(732.66666666667,508.66666666667) scale(2.7466666666667)"><rect width="6" height="6"/></g>
<g transform="translate(748.66666666667,508.66666666667) scale(2.7466666666667)"><rect width="6" height="6"/></g>
<g transform="translate(764.66666666667,508.66666666667) scale(2.7466666666667)"><rect width="6" height="6"/></g>
<g transform="translate(780.66666666667,508.66666666667) scale(2.7466666666667)"><rect width="6" height="6"/></g>
<g transform="translate(828.66666666667,508.66666666667) scale(2.7466666666667)"><rect width="6" height="6"/></g>
<g transform="translate(844.66666666667,508.66666666667) scale(2.7466666666667)"><rect width="6" height="6"/></g>
<g transform="translate(860.66666666667,508.66666666667) scale(2.7466666666667)"><rect width="6" height="6"/></g>
<g transform="translate(876.66666666667,508.66666666667) scale(2.7466666666667)"><rect width="6" height="6"/></g>
<g transform="translate(924.66666666667,508.66666666667) scale(2.7466666666667)"><rect width="6" height="6"/></g>
<g transform="translate(940.66666666667,508.66666666667) scale(2.7466666666667)"><rect width="6" height="6"/></g>
<g transform="translate(300.66666666667,524.66666666667) scale(2.7466666666667)"><rect width="6" height="6"/></g>
<g transform="translate(348.66666666667,524.66666666667) scale(2.7466666666667)"><rect width="6" height="6"/></g>
<g transform="translate(364.66666666667,524.66666666667) scale(2.7466666666667)"><rect width="6" height="6"/></g>
<g transform="translate(396.66666666667,524.66666666667) scale(2.7466666666667)"><rect width="6" height="6"/></g>
<g transform="translate(412.66666666667,524.66666666667) scale(2.7466666666667)"><rect width="6" height="6"/></g>
<g transform="translate(428.66666666667,524.66666666667) scale(2.7466666666667)"><rect width="6" height="6"/></g>
<g transform="translate(492.66666666667,524.66666666667) scale(2.7466666666667)"><rect width="6" height="6"/></g>
<g transform="translate(508.66666666667,524.66666666667) scale(2.7466666666667)"><rect width="6" height="6"/></g>
<g transform="translate(604.66666666667,524.66666666667) scale(2.7466666666667)"><rect width="6" height="6"/></g>
<g transform="translate(620.66666666667,524.66666666667) scale(2.7466666666667)"><rect width="6" height="6"/></g>
<g transform="translate(636.66666666667,524.66666666667) scale(2.7466666666667)"><rect width="6" height="6"/></g>
<g transform="translate(652.66666666667,524.66666666667) scale(2.7466666666667)"><rect width="6" height="6"/></g>
<g transform="translate(716.66666666667,524.66666666667) scale(2.7466666666667)"><rect width="6" height="6"/></g>
<g transform="translate(764.66666666667,524.66666666667) scale(2.7466666666667)"><rect width="6" height="6"/></g>
<g transform="translate(812.66666666667,524.66666666667) scale(2.7466666666667)"><rect width="6" height="6"/></g>
<g transform="translate(828.66666666667,524.66666666667) scale(2.7466666666667)"><rect width="6" height="6"/></g>
<g transform="translate(860.66666666667,524.66666666667) scale(2.7466666666667)"><rect width="6" height="6"/></g>
<g transform="translate(876.66666666667,524.66666666667) scale(2.7466666666667)"><rect width="6" height="6"/></g>
<g transform="translate(892.66666666667,524.66666666667) scale(2.7466666666667)"><rect width="6" height="6"/></g>
<g transform="translate(908.66666666667,524.66666666667) scale(2.7466666666667)"><rect width="6" height="6"/></g>
<g transform="translate(332.66666666667,540.66666666667) scale(2.7466666666667)"><rect width="6" height="6"/></g>
<g transform="translate(348.66666666667,540.66666666667) scale(2.7466666666667)"><rect width="6" height="6"/></g>
<g transform="translate(364.66666666667,540.66666666667) scale(2.7466666666667)"><rect width="6" height="6"/></g>
<g transform="translate(380.66666666667,540.66666666667) scale(2.7466666666667)"><rect width="6" height="6"/></g>
<g transform="translate(428.66666666667,540.66666666667) scale(2.7466666666667)"><rect width="6" height="6"/></g>
<g transform="translate(444.66666666667,540.66666666667) scale(2.7466666666667)"><rect width="6" height="6"/></g>
<g transform="translate(540.66666666667,540.66666666667) scale(2.7466666666667)"><rect width="6" height="6"/></g>
<g transform="translate(588.66666666667,540.66666666667) scale(2.7466666666667)"><rect width="6" height="6"/></g>
<g transform="translate(620.66666666667,540.66666666667) scale(2.7466666666667)"><rect width="6" height="6"/></g>
<g transform="translate(652.66666666667,540.66666666667) scale(2.7466666666667)"><rect width="6" height="6"/></g>
<g transform="translate(684.66666666667,540.66666666667) scale(2.7466666666667)"><rect width="6" height="6"/></g>
<g transform="translate(716.66666666667,540.66666666667) scale(2.7466666666667)"><rect width="6" height="6"/></g>
<g transform="translate(748.66666666667,540.66666666667) scale(2.7466666666667)"><rect width="6" height="6"/></g>
<g transform="translate(844.66666666667,540.66666666667) scale(2.7466666666667)"><rect width="6" height="6"/></g>
<g transform="translate(860.66666666667,540.66666666667) scale(2.7466666666667)"><rect width="6" height="6"/></g>
<g transform="translate(876.66666666667,540.66666666667) scale(2.7466666666667)"><rect width="6" height="6"/></g>
<g transform="translate(892.66666666667,540.66666666667) scale(2.7466666666667)"><rect width="6" height="6"/></g>
<g transform="translate(924.66666666667,540.66666666667) scale(2.7466666666667)"><rect width="6" height="6"/></g>
<g transform="translate(316.66666666667,556.66666666667) scale(2.7466666666667)"><rect width="6" height="6"/></g>
<g transform="translate(348.66666666667,556.66666666667) scale(2.7466666666667)"><rect width="6" height="6"/></g>
<g transform="translate(364.66666666667,556.66666666667) scale(2.7466666666667)"><rect width="6" height="6"/></g>
<g transform="translate(380.66666666667,556.66666666667) scale(2.7466666666667)"><rect width="6" height="6"/></g>
<g transform="translate(396.66666666667,556.66666666667) scale(2.7466666666667)"><rect width="6" height="6"/></g>
<g transform="translate(444.66666666667,556.66666666667) scale(2.7466666666667)"><rect width="6" height="6"/></g>
<g transform="translate(460.66666666667,556.66666666667) scale(2.7466666666667)"><rect width="6" height="6"/></g>
<g transform="translate(492.66666666667,556.66666666667) scale(2.7466666666667)"><rect width="6" height="6"/></g>
<g transform="translate(508.66666666667,556.66666666667) scale(2.7466666666667)"><rect width="6" height="6"/></g>
<g transform="translate(540.66666666667,556.66666666667) scale(2.7466666666667)"><rect width="6" height="6"/></g>
<g transform="translate(556.66666666667,556.66666666667) scale(2.7466666666667)"><rect width="6" height="6"/></g>
<g transform="translate(572.66666666667,556.66666666667) scale(2.7466666666667)"><rect width="6" height="6"/></g>
<g transform="translate(604.66666666667,556.66666666667) scale(2.7466666666667)"><rect width="6" height="6"/></g>
<g transform="translate(620.66666666667,556.66666666667) scale(2.7466666666667)"><rect width="6" height="6"/></g>
<g transform="translate(684.66666666667,556.66666666667) scale(2.7466666666667)"><rect width="6" height="6"/></g>
<g transform="translate(700.66666666667,556.66666666667) scale(2.7466666666667)"><rect width="6" height="6"/></g>
<g transform="translate(748.66666666667,556.66666666667) scale(2.7466666666667)"><rect width="6" height="6"/></g>
<g transform="translate(764.66666666667,556.66666666667) scale(2.7466666666667)"><rect width="6" height="6"/></g>
<g transform="translate(828.66666666667,556.66666666667) scale(2.7466666666667)"><rect width="6" height="6"/></g>
<g transform="translate(860.66666666667,556.66666666667) scale(2.7466666666667)"><rect width="6" height="6"/></g>
<g transform="translate(908.66666666667,556.66666666667) scale(2.7466666666667)"><rect width="6" height="6"/></g>
<g transform="translate(316.66666666667,572.66666666667) scale(2.7466666666667)"><rect width="6" height="6"/></g>
<g transform="translate(364.66666666667,572.66666666667) scale(2.7466666666667)"><rect width="6" height="6"/></g>
<g transform="translate(380.66666666667,572.66666666667) scale(2.7466666666667)"><rect width="6" height="6"/></g>
<g transform="translate(460.66666666667,572.66666666667) scale(2.7466666666667)"><rect width="6" height="6"/></g>
<g transform="translate(508.66666666667,572.66666666667) scale(2.7466666666667)"><rect width="6" height="6"/></g>
<g transform="translate(524.66666666667,572.66666666667) scale(2.7466666666667)"><rect width="6" height="6"/></g>
<g transform="translate(540.66666666667,572.66666666667) scale(2.7466666666667)"><rect width="6" height="6"/></g>
<g transform="translate(572.66666666667,572.66666666667) scale(2.7466666666667)"><rect width="6" height="6"/></g>
<g transform="translate(604.66666666667,572.66666666667) scale(2.7466666666667)"><rect width="6" height="6"/></g>
<g transform="translate(620.66666666667,572.66666666667) scale(2.7466666666667)"><rect width="6" height="6"/></g>
<g transform="translate(652.66666666667,572.66666666667) scale(2.7466666666667)"><rect width="6" height="6"/></g>
<g transform="translate(668.66666666667,572.66666666667) scale(2.7466666666667)"><rect width="6" height="6"/></g>
<g transform="translate(700.66666666667,572.66666666667) scale(2.7466666666667)"><rect width="6" height="6"/></g>
<g transform="translate(716.66666666667,572.66666666667) scale(2.7466666666667)"><rect width="6" height="6"/></g>
<g transform="translate(748.66666666667,572.66666666667) scale(2.7466666666667)"><rect width="6" height="6"/></g>
<g transform="translate(796.66666666667,572.66666666667) scale(2.7466666666667)"><rect width="6" height="6"/></g>
<g transform="translate(812.66666666667,572.66666666667) scale(2.7466666666667)"><rect width="6" height="6"/></g>
<g transform="translate(844.66666666667,572.66666666667) scale(2.7466666666667)"><rect width="6" height="6"/></g>
<g transform="translate(860.66666666667,572.66666666667) scale(2.7466666666667)"><rect width="6" height="6"/></g>
<g transform="translate(876.66666666667,572.66666666667) scale(2.7466666666667)"><rect width="6" height="6"/></g>
<g transform="translate(892.66666666667,572.66666666667) scale(2.7466666666667)"><rect width="6" height="6"/></g>
<g transform="translate(908.66666666667,572.66666666667) scale(2.7466666666667)"><rect width="6" height="6"/></g>
<g transform="translate(940.66666666667,572.66666666667) scale(2.7466666666667)"><rect width="6" height="6"/></g>
<g transform="translate(316.66666666667,588.66666666667) scale(2.7466666666667)"><rect width="6" height="6"/></g>
<g transform="translate(332.66666666667,588.66666666667) scale(2.7466666666667)"><rect width="6" height="6"/></g>
<g transform="translate(396.66666666667,588.66666666667) scale(2.7466666666667)"><rect width="6" height="6"/></g>
<g transform="translate(412.66666666667,588.66666666667) scale(2.7466666666667)"><rect width="6" height="6"/></g>
<g transform="translate(428.66666666667,588.66666666667) scale(2.7466666666667)"><rect width="6" height="6"/></g>
<g transform="translate(476.66666666667,588.66666666667) scale(2.7466666666667)"><rect width="6" height="6"/></g>
<g transform="translate(508.66666666667,588.66666666667) scale(2.7466666666667)"><rect width="6" height="6"/></g>
<g transform="translate(524.66666666667,588.66666666667) scale(2.7466666666667)"><rect width="6" height="6"/></g>
<g transform="translate(556.66666666667,588.66666666667) scale(2.7466666666667)"><rect width="6" height="6"/></g>
<g transform="translate(620.66666666667,588.66666666667) scale(2.7466666666667)"><rect width="6" height="6"/></g>
<g transform="translate(636.66666666667,588.66666666667) scale(2.7466666666667)"><rect width="6" height="6"/></g>
<g transform="translate(700.66666666667,588.66666666667) scale(2.7466666666667)"><rect width="6" height="6"/></g>
<g transform="translate(716.66666666667,588.66666666667) scale(2.7466666666667)"><rect width="6" height="6"/></g>
<g transform="translate(732.66666666667,588.66666666667) scale(2.7466666666667)"><rect width="6" height="6"/></g>
<g transform="translate(748.66666666667,588.66666666667) scale(2.7466666666667)"><rect width="6" height="6"/></g>
<g transform="translate(780.66666666667,588.66666666667) scale(2.7466666666667)"><rect width="6" height="6"/></g>
<g transform="translate(812.66666666667,588.66666666667) scale(2.7466666666667)"><rect width="6" height="6"/></g>
<g transform="translate(844.66666666667,588.66666666667) scale(2.7466666666667)"><rect width="6" height="6"/></g>
<g transform="translate(876.66666666667,588.66666666667) scale(2.7466666666667)"><rect width="6" height="6"/></g>
<g transform="translate(892.66666666667,588.66666666667) scale(2.7466666666667)"><rect width="6" height="6"/></g>
<g transform="translate(908.66666666667,588.66666666667) scale(2.7466666666667)"><rect width="6" height="6"/></g>
<g transform="translate(300.66666666667,604.66666666667) scale(2.7466666666667)"><rect width="6" height="6"/></g>
<g transform="translate(332.66666666667,604.66666666667) scale(2.7466666666667)"><rect width="6" height="6"/></g>
<g transform="translate(364.66666666667,604.66666666667) scale(2.7466666666667)"><rect width="6" height="6"/></g>
<g transform="translate(380.66666666667,604.66666666667) scale(2.7466666666667)"><rect width="6" height="6"/></g>
<g transform="translate(412.66666666667,604.66666666667) scale(2.7466666666667)"><rect width="6" height="6"/></g>
<g transform="translate(444.66666666667,604.66666666667) scale(2.7466666666667)"><rect width="6" height="6"/></g>
<g transform="translate(460.66666666667,604.66666666667) scale(2.7466666666667)"><rect width="6" height="6"/></g>
<g transform="translate(508.66666666667,604.66666666667) scale(2.7466666666667)"><rect width="6" height="6"/></g>
<g transform="translate(556.66666666667,604.66666666667) scale(2.7466666666667)"><rect width="6" height="6"/></g>
<g transform="translate(588.66666666667,604.66666666667) scale(2.7466666666667)"><rect width="6" height="6"/></g>
<g transform="translate(604.66666666667,604.66666666667) scale(2.7466666666667)"><rect width="6" height="6"/></g>
<g transform="translate(620.66666666667,604.66666666667) scale(2.7466666666667)"><rect width="6" height="6"/></g>
<g transform="translate(652.66666666667,604.66666666667) scale(2.7466666666667)"><rect width="6" height="6"/></g>
<g transform="translate(668.66666666667,604.66666666667) scale(2.7466666666667)"><rect width="6" height="6"/></g>
<g transform="translate(700.66666666667,604.66666666667) scale(2.7466666666667)"><rect width="6" height="6"/></g>
<g transform="translate(748.66666666667,604.66666666667) scale(2.7466666666667)"><rect width="6" height="6"/></g>
<g transform="translate(812.66666666667,604.66666666667) scale(2.7466666666667)"><rect width="6" height="6"/></g>
<g transform="translate(828.66666666667,604.66666666667) scale(2.7466666666667)"><rect width="6" height="6"/></g>
<g transform="translate(844.66666666667,604.66666666667) scale(2.7466666666667)"><rect width="6" height="6"/></g>
<g transform="translate(876.66666666667,604.66666666667) scale(2.7466666666667)"><rect width="6" height="6"/></g>
<g transform="translate(892.66666666667,604.66666666667) scale(2.7466666666667)"><rect width="6" height="6"/></g>
<g transform="translate(300.66666666667,620.66666666667) scale(2.7466666666667)"><rect width="6" height="6"/></g>
<g transform="translate(316.66666666667,620.66666666667) scale(2.7466666666667)"><rect width="6" height="6"/></g>
<g transform="translate(364.66666666667,620.66666666667) scale(2.7466666666667)"><rect width="6" height="6"/></g>
<g transform="translate(380.66666666667,620.66666666667) scale(2.7466666666667)"><rect width="6" height="6"/></g>
<g transform="translate(396.66666666667,620.66666666667) scale(2.7466666666667)"><rect width="6" height="6"/></g>
<g transform="translate(412.66666666667,620.66666666667) scale(2.7466666666667)"><rect width="6" height="6"/></g>
<g transform="translate(444.66666666667,620.66666666667) scale(2.7466666666667)"><rect width="6" height="6"/></g>
<g transform="translate(460.66666666667,620.66666666667) scale(2.7466666666667)"><rect width="6" height="6"/></g>
<g transform="translate(476.66666666667,620.66666666667) scale(2.7466666666667)"><rect width="6" height="6"/></g>
<g transform="translate(508.66666666667,620.66666666667) scale(2.7466666666667)"><rect width="6" height="6"/></g>
<g transform="translate(524.66666666667,620.66666666667) scale(2.7466666666667)"><rect width="6" height="6"/></g>
<g transform="translate(540.66666666667,620.66666666667) scale(2.7466666666667)"><rect width="6" height="6"/></g>
<g transform="translate(620.66666666667,620.66666666667) scale(2.7466666666667)"><rect width="6" height="6"/></g>
<g transform="translate(668.66666666667,620.66666666667) scale(2.7466666666667)"><rect width="6" height="6"/></g>
<g transform="translate(716.66666666667,620.66666666667) scale(2.7466666666667)"><rect width="6" height="6"/></g>
<g transform="translate(780.66666666667,620.66666666667) scale(2.7466666666667)"><rect width="6" height="6"/></g>
<g transform="translate(796.66666666667,620.66666666667) scale(2.7466666666667)"><rect width="6" height="6"/></g>
<g transform="translate(828.66666666667,620.66666666667) scale(2.7466666666667)"><rect width="6" height="6"/></g>
<g transform="translate(860.66666666667,620.66666666667) scale(2.7466666666667)"><rect width="6" height="6"/></g>
<g transform="translate(892.66666666667,620.66666666667) scale(2.7466666666667)"><rect width="6" height="6"/></g>
<g transform="translate(908.66666666667,620.66666666667) scale(2.7466666666667)"><rect width="6" height="6"/></g>
<g transform="translate(940.66666666667,620.66666666667) scale(2.7466666666667)"><rect width="6" height="6"/></g>
<g transform="translate(332.66666666667,636.66666666667) scale(2.7466666666667)"><rect width="6" height="6"/></g>
<g transform="translate(380.66666666667,636.66666666667) scale(2.7466666666667)"><rect width="6" height="6"/></g>
<g transform="translate(412.66666666667,636.66666666667) scale(2.7466666666667)"><rect width="6" height="6"/></g>
<g transform="translate(428.66666666667,636.66666666667) scale(2.7466666666667)"><rect width="6" height="6"/></g>
<g transform="translate(444.66666666667,636.66666666667) scale(2.7466666666667)"><rect width="6" height="6"/></g>
<g transform="translate(460.66666666667,636.66666666667) scale(2.7466666666667)"><rect width="6" height="6"/></g>
<g transform="translate(508.66666666667,636.66666666667) scale(2.7466666666667)"><rect width="6" height="6"/></g>
<g transform="translate(524.66666666667,636.66666666667) scale(2.7466666666667)"><rect width="6" height="6"/></g>
<g transform="translate(540.66666666667,636.66666666667) scale(2.7466666666667)"><rect width="6" height="6"/></g>
<g transform="translate(572.66666666667,636.66666666667) scale(2.7466666666667)"><rect width="6" height="6"/></g>
<g transform="translate(604.66666666667,636.66666666667) scale(2.7466666666667)"><rect width="6" height="6"/></g>
<g transform="translate(636.66666666667,636.66666666667) scale(2.7466666666667)"><rect width="6" height="6"/></g>
<g transform="translate(668.66666666667,636.66666666667) scale(2.7466666666667)"><rect width="6" height="6"/></g>
<g transform="translate(796.66666666667,636.66666666667) scale(2.7466666666667)"><rect width="6" height="6"/></g>
<g transform="translate(812.66666666667,636.66666666667) scale(2.7466666666667)"><rect width="6" height="6"/></g>
<g transform="translate(828.66666666667,636.66666666667) scale(2.7466666666667)"><rect width="6" height="6"/></g>
<g transform="translate(844.66666666667,636.66666666667) scale(2.7466666666667)"><rect width="6" height="6"/></g>
<g transform="translate(860.66666666667,636.66666666667) scale(2.7466666666667)"><rect width="6" height="6"/></g>
<g transform="translate(876.66666666667,636.66666666667) scale(2.7466666666667)"><rect width="6" height="6"/></g>
<g transform="translate(924.66666666667,636.66666666667) scale(2.7466666666667)"><rect width="6" height="6"/></g>
<g transform="translate(940.66666666667,636.66666666667) scale(2.7466666666667)"><rect width="6" height="6"/></g>
<g transform="translate(300.66666666667,652.66666666667) scale(2.7466666666667)"><rect width="6" height="6"/></g>
<g transform="translate(316.66666666667,652.66666666667) scale(2.7466666666667)"><rect width="6" height="6"/></g>
<g transform="translate(332.66666666667,652.66666666667) scale(2.7466666666667)"><rect width="6" height="6"/></g>
<g transform="translate(348.66666666667,652.66666666667) scale(2.7466666666667)"><rect width="6" height="6"/></g>
<g transform="translate(380.66666666667,652.66666666667) scale(2.7466666666667)"><rect width="6" height="6"/></g>
<g transform="translate(396.66666666667,652.66666666667) scale(2.7466666666667)"><rect width="6" height="6"/></g>
<g transform="translate(428.66666666667,652.66666666667) scale(2.7466666666667)"><rect width="6" height="6"/></g>
<g transform="translate(444.66666666667,652.66666666667) scale(2.7466666666667)"><rect width="6" height="6"/></g>
<g transform="translate(476.66666666667,652.66666666667) scale(2.7466666666667)"><rect width="6" height="6"/></g>
<g transform="translate(508.66666666667,652.66666666667) scale(2.7466666666667)"><rect width="6" height="6"/></g>
<g transform="translate(540.66666666667,652.66666666667) scale(2.7466666666667)"><rect width="6" height="6"/></g>
<g transform="translate(556.66666666667,652.66666666667) scale(2.7466666666667)"><rect width="6" height="6"/></g>
<g transform="translate(620.66666666667,652.66666666667) scale(2.7466666666667)"><rect width="6" height="6"/></g>
<g transform="translate(652.66666666667,652.66666666667) scale(2.7466666666667)"><rect width="6" height="6"/></g>
<g transform="translate(716.66666666667,652.66666666667) scale(2.7466666666667)"><rect width="6" height="6"/></g>
<g transform="translate(732.66666666667,652.66666666667) scale(2.7466666666667)"><rect width="6" height="6"/></g>
<g transform="translate(828.66666666667,652.66666666667) scale(2.7466666666667)"><rect width="6" height="6"/></g>
<g transform="translate(844.66666666667,652.66666666667) scale(2.7466666666667)"><rect width="6" height="6"/></g>
<g transform="translate(860.66666666667,652.66666666667) scale(2.7466666666667)"><rect width="6" height="6"/></g>
<g transform="translate(892.66666666667,652.66666666667) scale(2.7466666666667)"><rect width="6" height="6"/></g>
<g transform="translate(908.66666666667,652.66666666667) scale(2.7466666666667)"><rect width="6" height="6"/></g>
<g transform="translate(300.66666666667,668.66666666667) scale(2.7466666666667)"><rect width="6" height="6"/></g>
<g transform="translate(316.66666666667,668.66666666667) scale(2.7466666666667)"><rect width="6" height="6"/></g>
<g transform="translate(348.66666666667,668.66666666667) scale(2.7466666666667)"><rect width="6" height="6"/></g>
<g transform="translate(380.66666666667,668.66666666667) scale(2.7466666666667)"><rect width="6" height="6"/></g>
<g transform="translate(412.66666666667,668.66666666667) scale(2.7466666666667)"><rect width="6" height="6"/></g>
<g transform="translate(428.66666666667,668.66666666667) scale(2.7466666666667)"><rect width="6" height="6"/></g>
<g transform="translate(508.66666666667,668.66666666667) scale(2.7466666666667)"><rect width="6" height="6"/></g>
<g transform="translate(540.66666666667,668.66666666667) scale(2.7466666666667)"><rect width="6" height="6"/></g>
<g transform="translate(588.66666666667,668.66666666667) scale(2.7466666666667)"><rect width="6" height="6"/></g>
<g transform="translate(604.66666666667,668.66666666667) scale(2.7466666666667)"><rect width="6" height="6"/></g>
<g transform="translate(636.66666666667,668.66666666667) scale(2.7466666666667)"><rect width="6" height="6"/></g>
<g transform="translate(652.66666666667,668.66666666667) scale(2.7466666666667)"><rect width="6" height="6"/></g>
<g transform="translate(668.66666666667,668.66666666667) scale(2.7466666666667)"><rect width="6" height="6"/></g>
<g transform="translate(732.66666666667,668.66666666667) scale(2.7466666666667)"><rect width="6" height="6"/></g>
<g transform="translate(748.66666666667,668.66666666667) scale(2.7466666666667)"><rect width="6" height="6"/></g>
<g transform="translate(796.66666666667,668.66666666667) scale(2.7466666666667)"><rect width="6" height="6"/></g>
<g transform="translate(812.66666666667,668.66666666667) scale(2.7466666666667)"><rect width="6" height="6"/></g>
<g transform="translate(828.66666666667,668.66666666667) scale(2.7466666666667)"><rect width="6" height="6"/></g>
<g transform="translate(860.66666666667,668.66666666667) scale(2.7466666666667)"><rect width="6" height="6"/></g>
<g transform="translate(892.66666666667,668.66666666667) scale(2.7466666666667)"><rect width="6" height="6"/></g>
<g transform="translate(924.66666666667,668.66666666667) scale(2.7466666666667)"><rect width="6" height="6"/></g>
<g transform="translate(940.66666666667,668.66666666667) scale(2.7466666666667)"><rect width="6" height="6"/></g>
<g transform="translate(364.66666666667,684.66666666667) scale(2.7466666666667)"><rect width="6" height="6"/></g>
<g transform="translate(380.66666666667,684.66666666667) scale(2.7466666666667)"><rect width="6" height="6"/></g>
<g transform="translate(396.66666666667,684.66666666667) scale(2.7466666666667)"><rect width="6" height="6"/></g>
<g transform="translate(412.66666666667,684.66666666667) scale(2.7466666666667)"><rect width="6" height="6"/></g>
<g transform="translate(428.66666666667,684.66666666667) scale(2.7466666666667)"><rect width="6" height="6"/></g>
<g transform="translate(444.66666666667,684.66666666667) scale(2.7466666666667)"><rect width="6" height="6"/></g>
<g transform="translate(460.66666666667,684.66666666667) scale(2.7466666666667)"><rect width="6" height="6"/></g>
<g transform="translate(476.66666666667,684.66666666667) scale(2.7466666666667)"><rect width="6" height="6"/></g>
<g transform="translate(508.66666666667,684.66666666667) scale(2.7466666666667)"><rect width="6" height="6"/></g>
<g transform="translate(524.66666666667,684.66666666667) scale(2.7466666666667)"><rect width="6" height="6"/></g>
<g transform="translate(540.66666666667,684.66666666667) scale(2.7466666666667)"><rect width="6" height="6"/></g>
<g transform="translate(556.66666666667,684.66666666667) scale(2.7466666666667)"><rect width="6" height="6"/></g>
<g transform="translate(572.66666666667,684.66666666667) scale(2.7466666666667)"><rect width="6" height="6"/></g>
<g transform="translate(604.66666666667,684.66666666667) scale(2.7466666666667)"><rect width="6" height="6"/></g>
<g transform="translate(668.66666666667,684.66666666667) scale(2.7466666666667)"><rect width="6" height="6"/></g>
<g transform="translate(684.66666666667,684.66666666667) scale(2.7466666666667)"><rect width="6" height="6"/></g>
<g transform="translate(700.66666666667,684.66666666667) scale(2.7466666666667)"><rect width="6" height="6"/></g>
<g transform="translate(716.66666666667,684.66666666667) scale(2.7466666666667)"><rect width="6" height="6"/></g>
<g transform="translate(764.66666666667,684.66666666667) scale(2.7466666666667)"><rect width="6" height="6"/></g>
<g transform="translate(892.66666666667,684.66666666667) scale(2.7466666666667)"><rect width="6" height="6"/></g>
<g transform="translate(908.66666666667,684.66666666667) scale(2.7466666666667)"><rect width="6" height="6"/></g>
<g transform="translate(940.66666666667,684.66666666667) scale(2.7466666666667)"><rect width="6" height="6"/></g>
<g transform="translate(300.66666666667,700.66666666667) scale(2.7466666666667)"><rect width="6" height="6"/></g>
<g transform="translate(316.66666666667,700.66666666667) scale(2.7466666666667)"><rect width="6" height="6"/></g>
<g transform="translate(364.66666666667,700.66666666667) scale(2.7466666666667)"><rect width="6" height="6"/></g>
<g transform="translate(428.66666666667,700.66666666667) scale(2.7466666666667)"><rect width="6" height="6"/></g>
<g transform="translate(444.66666666667,700.66666666667) scale(2.7466666666667)"><rect width="6" height="6"/></g>
<g transform="translate(460.66666666667,700.66666666667) scale(2.7466666666667)"><rect width="6" height="6"/></g>
<g transform="translate(572.66666666667,700.66666666667) scale(2.7466666666667)"><rect width="6" height="6"/></g>
<g transform="translate(604.66666666667,700.66666666667) scale(2.7466666666667)"><rect width="6" height="6"/></g>
<g transform="translate(620.66666666667,700.66666666667) scale(2.7466666666667)"><rect width="6" height="6"/></g>
<g transform="translate(668.66666666667,700.66666666667) scale(2.7466666666667)"><rect width="6" height="6"/></g>
<g transform="translate(780.66666666667,700.66666666667) scale(2.7466666666667)"><rect width="6" height="6"/></g>
<g transform="translate(796.66666666667,700.66666666667) scale(2.7466666666667)"><rect width="6" height="6"/></g>
<g transform="translate(844.66666666667,700.66666666667) scale(2.7466666666667)"><rect width="6" height="6"/></g>
<g transform="translate(876.66666666667,700.66666666667) scale(2.7466666666667)"><rect width="6" height="6"/></g>
<g transform="translate(892.66666666667,700.66666666667) scale(2.7466666666667)"><rect width="6" height="6"/></g>
<g transform="translate(924.66666666667,700.66666666667) scale(2.7466666666667)"><rect width="6" height="6"/></g>
<g transform="translate(940.66666666667,700.66666666667) scale(2.7466666666667)"><rect width="6" height="6"/></g>
<g transform="translate(380.66666666667,716.66666666667) scale(2.7466666666667)"><rect width="6" height="6"/></g>
<g transform="translate(396.66666666667,716.66666666667) scale(2.7466666666667)"><rect width="6" height="6"/></g>
<g transform="translate(476.66666666667,716.66666666667) scale(2.7466666666667)"><rect width="6" height="6"/></g>
<g transform="translate(492.66666666667,716.66666666667) scale(2.7466666666667)"><rect width="6" height="6"/></g>
<g transform="translate(508.66666666667,716.66666666667) scale(2.7466666666667)"><rect width="6" height="6"/></g>
<g transform="translate(524.66666666667,716.66666666667) scale(2.7466666666667)"><rect width="6" height="6"/></g>
<g transform="translate(556.66666666667,716.66666666667) scale(2.7466666666667)"><rect width="6" height="6"/></g>
<g transform="translate(572.66666666667,716.66666666667) scale(2.7466666666667)"><rect width="6" height="6"/></g>
<g transform="translate(652.66666666667,716.66666666667) scale(2.7466666666667)"><rect width="6" height="6"/></g>
<g transform="translate(684.66666666667,716.66666666667) scale(2.7466666666667)"><rect width="6" height="6"/></g>
<g transform="translate(732.66666666667,716.66666666667) scale(2.7466666666667)"><rect width="6" height="6"/></g>
<g transform="translate(748.66666666667,716.66666666667) scale(2.7466666666667)"><rect width="6" height="6"/></g>
<g transform="translate(764.66666666667,716.66666666667) scale(2.7466666666667)"><rect width="6" height="6"/></g>
<g transform="translate(780.66666666667,716.66666666667) scale(2.7466666666667)"><rect width="6" height="6"/></g>
<g transform="translate(812.66666666667,716.66666666667) scale(2.7466666666667)"><rect width="6" height="6"/></g>
<g transform="translate(860.66666666667,716.66666666667) scale(2.7466666666667)"><rect width="6" height="6"/></g>
<g transform="translate(876.66666666667,716.66666666667) scale(2.7466666666667)"><rect width="6" height="6"/></g>
<g transform="translate(316.66666666667,732.66666666667) scale(2.7466666666667)"><rect width="6" height="6"/></g>
<g transform="translate(348.66666666667,732.66666666667) scale(2.7466666666667)"><rect width="6" height="6"/></g>
<g transform="translate(364.66666666667,732.66666666667) scale(2.7466666666667)"><rect width="6" height="6"/></g>
<g transform="translate(380.66666666667,732.66666666667) scale(2.7466666666667)"><rect width="6" height="6"/></g>
<g transform="translate(412.66666666667,732.66666666667) scale(2.7466666666667)"><rect width="6" height="6"/></g>
<g transform="translate(492.66666666667,732.66666666667) scale(2.7466666666667)"><rect width="6" height="6"/></g>
<g transform="translate(508.66666666667,732.66666666667) scale(2.7466666666667)"><rect width="6" height="6"/></g>
<g transform="translate(524.66666666667,732.66666666667) scale(2.7466666666667)"><rect width="6" height="6"/></g>
<g transform="translate(540.66666666667,732.66666666667) scale(2.7466666666667)"><rect width="6" height="6"/></g>
<g transform="translate(636.66666666667,732.66666666667) scale(2.7466666666667)"><rect width="6" height="6"/></g>
<g transform="translate(652.66666666667,732.66666666667) scale(2.7466666666667)"><rect width="6" height="6"/></g>
<g transform="translate(668.66666666667,732.66666666667) scale(2.7466666666667)"><rect width="6" height="6"/></g>
<g transform="translate(684.66666666667,732.66666666667) scale(2.7466666666667)"><rect width="6" height="6"/></g>
<g transform="translate(732.66666666667,732.66666666667) scale(2.7466666666667)"><rect width="6" height="6"/></g>
<g transform="translate(796.66666666667,732.66666666667) scale(2.7466666666667)"><rect width="6" height="6"/></g>
<g transform="translate(812.66666666667,732.66666666667) scale(2.7466666666667)"><rect width="6" height="6"/></g>
<g transform="translate(860.66666666667,732.66666666667) scale(2.7466666666667)"><rect width="6" height="6"/></g>
<g transform="translate(876.66666666667,732.66666666667) scale(2.7466666666667)"><rect width="6" height="6"/></g>
<g transform="translate(892.66666666667,732.66666666667) scale(2.7466666666667)"><rect width="6" height="6"/></g>
<g transform="translate(940.66666666667,732.66666666667) scale(2.7466666666667)"><rect width="6" height="6"/></g>
<g transform="translate(300.66666666667,748.66666666667) scale(2.7466666666667)"><rect width="6" height="6"/></g>
<g transform="translate(332.66666666667,748.66666666667) scale(2.7466666666667)"><rect width="6" height="6"/></g>
<g transform="translate(348.66666666667,748.66666666667) scale(2.7466666666667)"><rect width="6" height="6"/></g>
<g transform="translate(380.66666666667,748.66666666667) scale(2.7466666666667)"><rect width="6" height="6"/></g>
<g transform="translate(396.66666666667,748.66666666667) scale(2.7466666666667)"><rect width="6" height="6"/></g>
<g transform="translate(412.66666666667,748.66666666667) scale(2.7466666666667)"><rect width="6" height="6"/></g>
<g transform="translate(444.66666666667,748.66666666667) scale(2.7466666666667)"><rect width="6" height="6"/></g>
<g transform="translate(460.66666666667,748.66666666667) scale(2.7466666666667)"><rect width="6" height="6"/></g>
<g transform="translate(524.66666666667,748.66666666667) scale(2.7466666666667)"><rect width="6" height="6"/></g>
<g transform="translate(540.66666666667,748.66666666667) scale(2.7466666666667)"><rect width="6" height="6"/></g>
<g transform="translate(620.66666666667,748.66666666667) scale(2.7466666666667)"><rect width="6" height="6"/></g>
<g transform="translate(636.66666666667,748.66666666667) scale(2.7466666666667)"><rect width="6" height="6"/></g>
<g transform="translate(652.66666666667,748.66666666667) scale(2.7466666666667)"><rect width="6" height="6"/></g>
<g transform="translate(684.66666666667,748.66666666667) scale(2.7466666666667)"><rect width="6" height="6"/></g>
<g transform="translate(700.66666666667,748.66666666667) scale(2.7466666666667)"><rect width="6" height="6"/></g>
<g transform="translate(716.66666666667,748.66666666667) scale(2.7466666666667)"><rect width="6" height="6"/></g>
<g transform="translate(732.66666666667,748.66666666667) scale(2.7466666666667)"><rect width="6" height="6"/></g>
<g transform="translate(748.66666666667,748.66666666667) scale(2.7466666666667)"><rect width="6" height="6"/></g>
<g transform="translate(764.66666666667,748.66666666667) scale(2.7466666666667)"><rect width="6" height="6"/></g>
<g transform="translate(796.66666666667,748.66666666667) scale(2.7466666666667)"><rect width="6" height="6"/></g>
<g transform="translate(828.66666666667,748.66666666667) scale(2.7466666666667)"><rect width="6" height="6"/></g>
<g transform="translate(892.66666666667,748.66666666667) scale(2.7466666666667)"><rect width="6" height="6"/></g>
<g transform="translate(908.66666666667,748.66666666667) scale(2.7466666666667)"><rect width="6" height="6"/></g>
<g transform="translate(940.66666666667,748.66666666667) scale(2.7466666666667)"><rect width="6" height="6"/></g>
<g transform="translate(300.66666666667,764.66666666667) scale(2.7466666666667)"><rect width="6" height="6"/></g>
<g transform="translate(316.66666666667,764.66666666667) scale(2.7466666666667)"><rect width="6" height="6"/></g>
<g transform="translate(332.66666666667,764.66666666667) scale(2.7466666666667)"><rect width="6" height="6"/></g>
<g transform="translate(364.66666666667,764.66666666667) scale(2.7466666666667)"><rect width="6" height="6"/></g>
<g transform="translate(428.66666666667,764.66666666667) scale(2.7466666666667)"><rect width="6" height="6"/></g>
<g transform="translate(444.66666666667,764.66666666667) scale(2.7466666666667)"><rect width="6" height="6"/></g>
<g transform="translate(460.66666666667,764.66666666667) scale(2.7466666666667)"><rect width="6" height="6"/></g>
<g transform="translate(476.66666666667,764.66666666667) scale(2.7466666666667)"><rect width="6" height="6"/></g>
<g transform="translate(492.66666666667,764.66666666667) scale(2.7466666666667)"><rect width="6" height="6"/></g>
<g transform="translate(524.66666666667,764.66666666667) scale(2.7466666666667)"><rect width="6" height="6"/></g>
<g transform="translate(540.66666666667,764.66666666667) scale(2.7466666666667)"><rect width="6" height="6"/></g>
<g transform="translate(572.66666666667,764.66666666667) scale(2.7466666666667)"><rect width="6" height="6"/></g>
<g transform="translate(604.66666666667,764.66666666667) scale(2.7466666666667)"><rect width="6" height="6"/></g>
<g transform="translate(636.66666666667,764.66666666667) scale(2.7466666666667)"><rect width="6" height="6"/></g>
<g transform="translate(652.66666666667,764.66666666667) scale(2.7466666666667)"><rect width="6" height="6"/></g>
<g transform="translate(700.66666666667,764.66666666667) scale(2.7466666666667)"><rect width="6" height="6"/></g>
<g transform="translate(716.66666666667,764.66666666667) scale(2.7466666666667)"><rect width="6" height="6"/></g>
<g transform="translate(732.66666666667,764.66666666667) scale(2.7466666666667)"><rect width="6" height="6"/></g>
<g transform="translate(780.66666666667,764.66666666667) scale(2.7466666666667)"><rect width="6" height="6"/></g>
<g transform="translate(812.66666666667,764.66666666667) scale(2.7466666666667)"><rect width="6" height="6"/></g>
<g transform="translate(828.66666666667,764.66666666667) scale(2.7466666666667)"><rect width="6" height="6"/></g>
<g transform="translate(860.66666666667,764.66666666667) scale(2.7466666666667)"><rect width="6" height="6"/></g>
<g transform="translate(876.66666666667,764.66666666667) scale(2.7466666666667)"><rect width="6" height="6"/></g>
<g transform="translate(892.66666666667,764.66666666667) scale(2.7466666666667)"><rect width="6" height="6"/></g>
<g transform="translate(940.66666666667,764.66666666667) scale(2.7466666666667)"><rect width="6" height="6"/></g>
<g transform="translate(300.66666666667,780.66666666667) scale(2.7466666666667)"><rect width="6" height="6"/></g>
<g transform="translate(364.66666666667,780.66666666667) scale(2.7466666666667)"><rect width="6" height="6"/></g>
<g transform="translate(380.66666666667,780.66666666667) scale(2.7466666666667)"><rect width="6" height="6"/></g>
<g transform="translate(396.66666666667,780.66666666667) scale(2.7466666666667)"><rect width="6" height="6"/></g>
<g transform="translate(412.66666666667,780.66666666667) scale(2.7466666666667)"><rect width="6" height="6"/></g>
<g transform="translate(428.66666666667,780.66666666667) scale(2.7466666666667)"><rect width="6" height="6"/></g>
<g transform="translate(444.66666666667,780.66666666667) scale(2.7466666666667)"><rect width="6" height="6"/></g>
<g transform="translate(460.66666666667,780.66666666667) scale(2.7466666666667)"><rect width="6" height="6"/></g>
<g transform="translate(476.66666666667,780.66666666667) scale(2.7466666666667)"><rect width="6" height="6"/></g>
<g transform="translate(492.66666666667,780.66666666667) scale(2.7466666666667)"><rect width="6" height="6"/></g>
<g transform="translate(556.66666666667,780.66666666667) scale(2.7466666666667)"><rect width="6" height="6"/></g>
<g transform="translate(604.66666666667,780.66666666667) scale(2.7466666666667)"><rect width="6" height="6"/></g>
<g transform="translate(620.66666666667,780.66666666667) scale(2.7466666666667)"><rect width="6" height="6"/></g>
<g transform="translate(636.66666666667,780.66666666667) scale(2.7466666666667)"><rect width="6" height="6"/></g>
<g transform="translate(668.66666666667,780.66666666667) scale(2.7466666666667)"><rect width="6" height="6"/></g>
<g transform="translate(684.66666666667,780.66666666667) scale(2.7466666666667)"><rect width="6" height="6"/></g>
<g transform="translate(716.66666666667,780.66666666667) scale(2.7466666666667)"><rect width="6" height="6"/></g>
<g transform="translate(732.66666666667,780.66666666667) scale(2.7466666666667)"><rect width="6" height="6"/></g>
<g transform="translate(748.66666666667,780.66666666667) scale(2.7466666666667)"><rect width="6" height="6"/></g>
<g transform="translate(764.66666666667,780.66666666667) scale(2.7466666666667)"><rect width="6" height="6"/></g>
<g transform="translate(780.66666666667,780.66666666667) scale(2.7466666666667)"><rect width="6" height="6"/></g>
<g transform="translate(796.66666666667,780.66666666667) scale(2.7466666666667)"><rect width="6" height="6"/></g>
<g transform="translate(828.66666666667,780.66666666667) scale(2.7466666666667)"><rect width="6" height="6"/></g>
<g transform="translate(844.66666666667,780.66666666667) scale(2.7466666666667)"><rect width="6" height="6"/></g>
<g transform="translate(892.66666666667,780.66666666667) scale(2.7466666666667)"><rect width="6" height="6"/></g>
<g transform="translate(300.66666666667,796.66666666667) scale(2.7466666666667)"><rect width="6" height="6"/></g>
<g transform="translate(332.66666666667,796.66666666667) scale(2.7466666666667)"><rect width="6" height="6"/></g>
<g transform="translate(348.66666666667,796.66666666667) scale(2.7466666666667)"><rect width="6" height="6"/></g>
<g transform="translate(364.66666666667,796.66666666667) scale(2.7466666666667)"><rect width="6" height="6"/></g>
<g transform="translate(380.66666666667,796.66666666667) scale(2.7466666666667)"><rect width="6" height="6"/></g>
<g transform="translate(444.66666666667,796.66666666667) scale(2.7466666666667)"><rect width="6" height="6"/></g>
<g transform="translate(460.66666666667,796.66666666667) scale(2.7466666666667)"><rect width="6" height="6"/></g>
<g transform="translate(476.66666666667,796.66666666667) scale(2.7466666666667)"><rect width="6" height="6"/></g>
<g transform="translate(524.66666666667,796.66666666667) scale(2.7466666666667)"><rect width="6" height="6"/></g>
<g transform="translate(540.66666666667,796.66666666667) scale(2.7466666666667)"><rect width="6" height="6"/></g>
<g transform="translate(572.66666666667,796.66666666667) scale(2.7466666666667)"><rect width="6" height="6"/></g>
<g transform="translate(636.66666666667,796.66666666667) scale(2.7466666666667)"><rect width="6" height="6"/></g>
<g transform="translate(668.66666666667,796.66666666667) scale(2.7466666666667)"><rect width="6" height="6"/></g>
<g transform="translate(716.66666666667,796.66666666667) scale(2.7466666666667)"><rect width="6" height="6"/></g>
<g transform="translate(732.66666666667,796.66666666667) scale(2.7466666666667)"><rect width="6" height="6"/></g>
<g transform="translate(796.66666666667,796.66666666667) scale(2.7466666666667)"><rect width="6" height="6"/></g>
<g transform="translate(812.66666666667,796.66666666667) scale(2.7466666666667)"><rect width="6" height="6"/></g>
<g transform="translate(828.66666666667,796.66666666667) scale(2.7466666666667)"><rect width="6" height="6"/></g>
<g transform="translate(844.66666666667,796.66666666667) scale(2.7466666666667)"><rect width="6" height="6"/></g>
<g transform="translate(860.66666666667,796.66666666667) scale(2.7466666666667)"><rect width="6" height="6"/></g>
<g transform="translate(876.66666666667,796.66666666667) scale(2.7466666666667)"><rect width="6" height="6"/></g>
<g transform="translate(892.66666666667,796.66666666667) scale(2.7466666666667)"><rect width="6" height="6"/></g>
<g transform="translate(940.66666666667,796.66666666667) scale(2.7466666666667)"><rect width="6" height="6"/></g>
<g transform="translate(300.66666666667,812.66666666667) scale(2.7466666666667)"><rect width="6" height="6"/></g>
<g transform="translate(364.66666666667,812.66666666667) scale(2.7466666666667)"><rect width="6" height="6"/></g>
<g transform="translate(380.66666666667,812.66666666667) scale(2.7466666666667)"><rect width="6" height="6"/></g>
<g transform="translate(396.66666666667,812.66666666667) scale(2.7466666666667)"><rect width="6" height="6"/></g>
<g transform="translate(444.66666666667,812.66666666667) scale(2.7466666666667)"><rect width="6" height="6"/></g>
<g transform="translate(460.66666666667,812.66666666667) scale(2.7466666666667)"><rect width="6" height="6"/></g>
<g transform="translate(492.66666666667,812.66666666667) scale(2.7466666666667)"><rect width="6" height="6"/></g>
<g transform="translate(508.66666666667,812.66666666667) scale(2.7466666666667)"><rect width="6" height="6"/></g>
<g transform="translate(524.66666666667,812.66666666667) scale(2.7466666666667)"><rect width="6" height="6"/></g>
<g transform="translate(540.66666666667,812.66666666667) scale(2.7466666666667)"><rect width="6" height="6"/></g>
<g transform="translate(572.66666666667,812.66666666667) scale(2.7466666666667)"><rect width="6" height="6"/></g>
<g transform="translate(620.66666666667,812.66666666667) scale(2.7466666666667)"><rect width="6" height="6"/></g>
<g transform="translate(668.66666666667,812.66666666667) scale(2.7466666666667)"><rect width="6" height="6"/></g>
<g transform="translate(684.66666666667,812.66666666667) scale(2.7466666666667)"><rect width="6" height="6"/></g>
<g transform="translate(700.66666666667,812.66666666667) scale(2.7466666666667)"><rect width="6" height="6"/></g>
<g transform="translate(716.66666666667,812.66666666667) scale(2.7466666666667)"><rect width="6" height="6"/></g>
<g transform="translate(732.66666666667,812.66666666667) scale(2.7466666666667)"><rect width="6" height="6"/></g>
<g transform="translate(764.66666666667,812.66666666667) scale(2.7466666666667)"><rect width="6" height="6"/></g>
<g transform="translate(796.66666666667,812.66666666667) scale(2.7466666666667)"><rect width="6" height="6"/></g>
<g transform="translate(812.66666666667,812.66666666667) scale(2.7466666666667)"><rect width="6" height="6"/></g>
<g transform="translate(828.66666666667,812.66666666667) scale(2.7466666666667)"><rect width="6" height="6"/></g>
<g transform="translate(844.66666666667,812.66666666667) scale(2.7466666666667)"><rect width="6" height="6"/></g>
<g transform="translate(860.66666666667,812.66666666667) scale(2.7466666666667)"><rect width="6" height="6"/></g>
<g transform="translate(876.66666666667,812.66666666667) scale(2.7466666666667)"><rect width="6" height="6"/></g>
<g transform="translate(892.66666666667,812.66666666667) scale(2.7466666666667)"><rect width="6" height="6"/></g>
<g transform="translate(908.66666666667,812.66666666667) scale(2.7466666666667)"><rect width="6" height="6"/></g>
<g transform="translate(924.66666666667,812.66666666667) scale(2.7466666666667)"><rect width="6" height="6"/></g>
<g transform="translate(428.66666666667,828.66666666667) scale(2.7466666666667)"><rect width="6" height="6"/></g>
<g transform="translate(444.66666666667,828.66666666667) scale(2.7466666666667)"><rect width="6" height="6"/></g>
<g transform="translate(476.66666666667,828.66666666667) scale(2.7466666666667)"><rect width="6" height="6"/></g>
<g transform="translate(508.66666666667,828.66666666667) scale(2.7466666666667)"><rect width="6" height="6"/></g>
<g transform="translate(540.66666666667,828.66666666667) scale(2.7466666666667)"><rect width="6" height="6"/></g>
<g transform="translate(556.66666666667,828.66666666667) scale(2.7466666666667)"><rect width="6" height="6"/></g>
<g transform="translate(588.66666666667,828.66666666667) scale(2.7466666666667)"><rect width="6" height="6"/></g>
<g transform="translate(620.66666666667,828.66666666667) scale(2.7466666666667)"><rect width="6" height="6"/></g>
<g transform="translate(636.66666666667,828.66666666667) scale(2.7466666666667)"><rect width="6" height="6"/></g>
<g transform="translate(668.66666666667,828.66666666667) scale(2.7466666666667)"><rect width="6" height="6"/></g>
<g transform="translate(748.66666666667,828.66666666667) scale(2.7466666666667)"><rect width="6" height="6"/></g>
<g transform="translate(764.66666666667,828.66666666667) scale(2.7466666666667)"><rect width="6" height="6"/></g>
<g transform="translate(812.66666666667,828.66666666667) scale(2.7466666666667)"><rect width="6" height="6"/></g>
<g transform="translate(876.66666666667,828.66666666667) scale(2.7466666666667)"><rect width="6" height="6"/></g>
<g transform="translate(924.66666666667,828.66666666667) scale(2.7466666666667)"><rect width="6" height="6"/></g>
<g transform="translate(940.66666666667,828.66666666667) scale(2.7466666666667)"><rect width="6" height="6"/></g>
<g transform="translate(428.66666666667,844.66666666667) scale(2.7466666666667)"><rect width="6" height="6"/></g>
<g transform="translate(444.66666666667,844.66666666667) scale(2.7466666666667)"><rect width="6" height="6"/></g>
<g transform="translate(476.66666666667,844.66666666667) scale(2.7466666666667)"><rect width="6" height="6"/></g>
<g transform="translate(508.66666666667,844.66666666667) scale(2.7466666666667)"><rect width="6" height="6"/></g>
<g transform="translate(540.66666666667,844.66666666667) scale(2.7466666666667)"><rect width="6" height="6"/></g>
<g transform="translate(588.66666666667,844.66666666667) scale(2.7466666666667)"><rect width="6" height="6"/></g>
<g transform="translate(620.66666666667,844.66666666667) scale(2.7466666666667)"><rect width="6" height="6"/></g>
<g transform="translate(636.66666666667,844.66666666667) scale(2.7466666666667)"><rect width="6" height="6"/></g>
<g transform="translate(684.66666666667,844.66666666667) scale(2.7466666666667)"><rect width="6" height="6"/></g>
<g transform="translate(732.66666666667,844.66666666667) scale(2.7466666666667)"><rect width="6" height="6"/></g>
<g transform="translate(764.66666666667,844.66666666667) scale(2.7466666666667)"><rect width="6" height="6"/></g>
<g transform="translate(796.66666666667,844.66666666667) scale(2.7466666666667)"><rect width="6" height="6"/></g>
<g transform="translate(812.66666666667,844.66666666667) scale(2.7466666666667)"><rect width="6" height="6"/></g>
<g transform="translate(844.66666666667,844.66666666667) scale(2.7466666666667)"><rect width="6" height="6"/></g>
<g transform="translate(876.66666666667,844.66666666667) scale(2.7466666666667)"><rect width="6" height="6"/></g>
<g transform="translate(908.66666666667,844.66666666667) scale(2.7466666666667)"><rect width="6" height="6"/></g>
<g transform="translate(924.66666666667,844.66666666667) scale(2.7466666666667)"><rect width="6" height="6"/></g>
<g transform="translate(428.66666666667,860.66666666667) scale(2.7466666666667)"><rect width="6" height="6"/></g>
<g transform="translate(444.66666666667,860.66666666667) scale(2.7466666666667)"><rect width="6" height="6"/></g>
<g transform="translate(460.66666666667,860.66666666667) scale(2.7466666666667)"><rect width="6" height="6"/></g>
<g transform="translate(492.66666666667,860.66666666667) scale(2.7466666666667)"><rect width="6" height="6"/></g>
<g transform="translate(540.66666666667,860.66666666667) scale(2.7466666666667)"><rect width="6" height="6"/></g>
<g transform="translate(556.66666666667,860.66666666667) scale(2.7466666666667)"><rect width="6" height="6"/></g>
<g transform="translate(572.66666666667,860.66666666667) scale(2.7466666666667)"><rect width="6" height="6"/></g>
<g transform="translate(668.66666666667,860.66666666667) scale(2.7466666666667)"><rect width="6" height="6"/></g>
<g transform="translate(716.66666666667,860.66666666667) scale(2.7466666666667)"><rect width="6" height="6"/></g>
<g transform="translate(732.66666666667,860.66666666667) scale(2.7466666666667)"><rect width="6" height="6"/></g>
<g transform="translate(748.66666666667,860.66666666667) scale(2.7466666666667)"><rect width="6" height="6"/></g>
<g transform="translate(764.66666666667,860.66666666667) scale(2.7466666666667)"><rect width="6" height="6"/></g>
<g transform="translate(780.66666666667,860.66666666667) scale(2.7466666666667)"><rect width="6" height="6"/></g>
<g transform="translate(796.66666666667,860.66666666667) scale(2.7466666666667)"><rect width="6" height="6"/></g>
<g transform="translate(812.66666666667,860.66666666667) scale(2.7466666666667)"><rect width="6" height="6"/></g>
<g transform="translate(876.66666666667,860.66666666667) scale(2.7466666666667)"><rect width="6" height="6"/></g>
<g transform="translate(892.66666666667,860.66666666667) scale(2.7466666666667)"><rect width="6" height="6"/></g>
<g transform="translate(428.66666666667,876.66666666667) scale(2.7466666666667)"><rect width="6" height="6"/></g>
<g transform="translate(444.66666666667,876.66666666667) scale(2.7466666666667)"><rect width="6" height="6"/></g>
<g transform="translate(460.66666666667,876.66666666667) scale(2.7466666666667)"><rect width="6" height="6"/></g>
<g transform="translate(476.66666666667,876.66666666667) scale(2.7466666666667)"><rect width="6" height="6"/></g>
<g transform="translate(492.66666666667,876.66666666667) scale(2.7466666666667)"><rect width="6" height="6"/></g>
<g transform="translate(508.66666666667,876.66666666667) scale(2.7466666666667)"><rect width="6" height="6"/></g>
<g transform="translate(540.66666666667,876.66666666667) scale(2.7466666666667)"><rect width="6" height="6"/></g>
<g transform="translate(556.66666666667,876.66666666667) scale(2.7466666666667)"><rect width="6" height="6"/></g>
<g transform="translate(604.66666666667,876.66666666667) scale(2.7466666666667)"><rect width="6" height="6"/></g>
<g transform="translate(636.66666666667,876.66666666667) scale(2.7466666666667)"><rect width="6" height="6"/></g>
<g transform="translate(652.66666666667,876.66666666667) scale(2.7466666666667)"><rect width="6" height="6"/></g>
<g transform="translate(684.66666666667,876.66666666667) scale(2.7466666666667)"><rect width="6" height="6"/></g>
<g transform="translate(732.66666666667,876.66666666667) scale(2.7466666666667)"><rect width="6" height="6"/></g>
<g transform="translate(812.66666666667,876.66666666667) scale(2.7466666666667)"><rect width="6" height="6"/></g>
<g transform="translate(828.66666666667,876.66666666667) scale(2.7466666666667)"><rect width="6" height="6"/></g>
<g transform="translate(844.66666666667,876.66666666667) scale(2.7466666666667)"><rect width="6" height="6"/></g>
<g transform="translate(860.66666666667,876.66666666667) scale(2.7466666666667)"><rect width="6" height="6"/></g>
<g transform="translate(876.66666666667,876.66666666667) scale(2.7466666666667)"><rect width="6" height="6"/></g>
<g transform="translate(908.66666666667,876.66666666667) scale(2.7466666666667)"><rect width="6" height="6"/></g>
<g transform="translate(428.66666666667,892.66666666667) scale(2.7466666666667)"><rect width="6" height="6"/></g>
<g transform="translate(444.66666666667,892.66666666667) scale(2.7466666666667)"><rect width="6" height="6"/></g>
<g transform="translate(460.66666666667,892.66666666667) scale(2.7466666666667)"><rect width="6" height="6"/></g>
<g transform="translate(476.66666666667,892.66666666667) scale(2.7466666666667)"><rect width="6" height="6"/></g>
<g transform="translate(492.66666666667,892.66666666667) scale(2.7466666666667)"><rect width="6" height="6"/></g>
<g transform="translate(508.66666666667,892.66666666667) scale(2.7466666666667)"><rect width="6" height="6"/></g>
<g transform="translate(524.66666666667,892.66666666667) scale(2.7466666666667)"><rect width="6" height="6"/></g>
<g transform="translate(556.66666666667,892.66666666667) scale(2.7466666666667)"><rect width="6" height="6"/></g>
<g transform="translate(588.66666666667,892.66666666667) scale(2.7466666666667)"><rect width="6" height="6"/></g>
<g transform="translate(604.66666666667,892.66666666667) scale(2.7466666666667)"><rect width="6" height="6"/></g>
<g transform="translate(636.66666666667,892.66666666667) scale(2.7466666666667)"><rect width="6" height="6"/></g>
<g transform="translate(652.66666666667,892.66666666667) scale(2.7466666666667)"><rect width="6" height="6"/></g>
<g transform="translate(668.66666666667,892.66666666667) scale(2.7466666666667)"><rect width="6" height="6"/></g>
<g transform="translate(684.66666666667,892.66666666667) scale(2.7466666666667)"><rect width="6" height="6"/></g>
<g transform="translate(700.66666666667,892.66666666667) scale(2.7466666666667)"><rect width="6" height="6"/></g>
<g transform="translate(716.66666666667,892.66666666667) scale(2.7466666666667)"><rect width="6" height="6"/></g>
<g transform="translate(748.66666666667,892.66666666667) scale(2.7466666666667)"><rect width="6" height="6"/></g>
<g transform="translate(780.66666666667,892.66666666667) scale(2.7466666666667)"><rect width="6" height="6"/></g>
<g transform="translate(828.66666666667,892.66666666667) scale(2.7466666666667)"><rect width="6" height="6"/></g>
<g transform="translate(860.66666666667,892.66666666667) scale(2.7466666666667)"><rect width="6" height="6"/></g>
<g transform="translate(892.66666666667,892.66666666667) scale(2.7466666666667)"><rect width="6" height="6"/></g>
<g transform="translate(940.66666666667,892.66666666667) scale(2.7466666666667)"><rect width="6" height="6"/></g>
<g transform="translate(428.66666666667,908.66666666667) scale(2.7466666666667)"><rect width="6" height="6"/></g>
<g transform="translate(444.66666666667,908.66666666667) scale(2.7466666666667)"><rect width="6" height="6"/></g>
<g transform="translate(476.66666666667,908.66666666667) scale(2.7466666666667)"><rect width="6" height="6"/></g>
<g transform="translate(508.66666666667,908.66666666667) scale(2.7466666666667)"><rect width="6" height="6"/></g>
<g transform="translate(524.66666666667,908.66666666667) scale(2.7466666666667)"><rect width="6" height="6"/></g>
<g transform="translate(540.66666666667,908.66666666667) scale(2.7466666666667)"><rect width="6" height="6"/></g>
<g transform="translate(556.66666666667,908.66666666667) scale(2.7466666666667)"><rect width="6" height="6"/></g>
<g transform="translate(572.66666666667,908.66666666667) scale(2.7466666666667)"><rect width="6" height="6"/></g>
<g transform="translate(588.66666666667,908.66666666667) scale(2.7466666666667)"><rect width="6" height="6"/></g>
<g transform="translate(620.66666666667,908.66666666667) scale(2.7466666666667)"><rect width="6" height="6"/></g>
<g transform="translate(684.66666666667,908.66666666667) scale(2.7466666666667)"><rect width="6" height="6"/></g>
<g transform="translate(700.66666666667,908.66666666667) scale(2.7466666666667)"><rect width="6" height="6"/></g>
<g transform="translate(716.66666666667,908.66666666667) scale(2.7466666666667)"><rect width="6" height="6"/></g>
<g transform="translate(732.66666666667,908.66666666667) scale(2.7466666666667)"><rect width="6" height="6"/></g>
<g transform="translate(748.66666666667,908.66666666667) scale(2.7466666666667)"><rect width="6" height="6"/></g>
<g transform="translate(764.66666666667,908.66666666667) scale(2.7466666666667)"><rect width="6" height="6"/></g>
<g transform="translate(796.66666666667,908.66666666667) scale(2.7466666666667)"><rect width="6" height="6"/></g>
<g transform="translate(828.66666666667,908.66666666667) scale(2.7466666666667)"><rect width="6" height="6"/></g>
<g transform="translate(844.66666666667,908.66666666667) scale(2.7466666666667)"><rect width="6" height="6"/></g>
<g transform="translate(860.66666666667,908.66666666667) scale(2.7466666666667)"><rect width="6" height="6"/></g>
<g transform="translate(876.66666666667,908.66666666667) scale(2.7466666666667)"><rect width="6" height="6"/></g>
<g transform="translate(924.66666666667,908.66666666667) scale(2.7466666666667)"><rect width="6" height="6"/></g>
<g transform="translate(428.66666666667,924.66666666667) scale(2.7466666666667)"><rect width="6" height="6"/></g>
<g transform="translate(444.66666666667,924.66666666667) scale(2.7466666666667)"><rect width="6" height="6"/></g>
<g transform="translate(508.66666666667,924.66666666667) scale(2.7466666666667)"><rect width="6" height="6"/></g>
<g transform="translate(524.66666666667,924.66666666667) scale(2.7466666666667)"><rect width="6" height="6"/></g>
<g transform="translate(556.66666666667,924.66666666667) scale(2.7466666666667)"><rect width="6" height="6"/></g>
<g transform="translate(572.66666666667,924.66666666667) scale(2.7466666666667)"><rect width="6" height="6"/></g>
<g transform="translate(588.66666666667,924.66666666667) scale(2.7466666666667)"><rect width="6" height="6"/></g>
<g transform="translate(604.66666666667,924.66666666667) scale(2.7466666666667)"><rect width="6" height="6"/></g>
<g transform="translate(620.66666666667,924.66666666667) scale(2.7466666666667)"><rect width="6" height="6"/></g>
<g transform="translate(636.66666666667,924.66666666667) scale(2.7466666666667)"><rect width="6" height="6"/></g>
<g transform="translate(684.66666666667,924.66666666667) scale(2.7466666666667)"><rect width="6" height="6"/></g>
<g transform="translate(716.66666666667,924.66666666667) scale(2.7466666666667)"><rect width="6" height="6"/></g>
<g transform="translate(732.66666666667,924.66666666667) scale(2.7466666666667)"><rect width="6" height="6"/></g>
<g transform="translate(748.66666666667,924.66666666667) scale(2.7466666666667)"><rect width="6" height="6"/></g>
<g transform="translate(796.66666666667,924.66666666667) scale(2.7466666666667)"><rect width="6" height="6"/></g>
<g transform="translate(812.66666666667,924.66666666667) scale(2.7466666666667)"><rect width="6" height="6"/></g>
<g transform="translate(844.66666666667,924.66666666667) scale(2.7466666666667)"><rect width="6" height="6"/></g>
<g transform="translate(876.66666666667,924.66666666667) scale(2.7466666666667)"><rect width="6" height="6"/></g>
<g transform="translate(892.66666666667,924.66666666667) scale(2.7466666666667)"><rect width="6" height="6"/></g>
<g transform="translate(924.66666666667,924.66666666667) scale(2.7466666666667)"><rect width="6" height="6"/></g>
<g transform="translate(444.66666666667,940.66666666667) scale(2.7466666666667)"><rect width="6" height="6"/></g>
<g transform="translate(460.66666666667,940.66666666667) scale(2.7466666666667)"><rect width="6" height="6"/></g>
<g transform="translate(476.66666666667,940.66666666667) scale(2.7466666666667)"><rect width="6" height="6"/></g>
<g transform="translate(492.66666666667,940.66666666667) scale(2.7466666666667)"><rect width="6" height="6"/></g>
<g transform="translate(508.66666666667,940.66666666667) scale(2.7466666666667)"><rect width="6" height="6"/></g>
<g transform="translate(540.66666666667,940.66666666667) scale(2.7466666666667)"><rect width="6" height="6"/></g>
<g transform="translate(572.66666666667,940.66666666667) scale(2.7466666666667)"><rect width="6" height="6"/></g>
<g transform="translate(636.66666666667,940.66666666667) scale(2.7466666666667)"><rect width="6" height="6"/></g>
<g transform="translate(652.66666666667,940.66666666667) scale(2.7466666666667)"><rect width="6" height="6"/></g>
<g transform="translate(700.66666666667,940.66666666667) scale(2.7466666666667)"><rect width="6" height="6"/></g>
<g transform="translate(716.66666666667,940.66666666667) scale(2.7466666666667)"><rect width="6" height="6"/></g>
<g transform="translate(732.66666666667,940.66666666667) scale(2.7466666666667)"><rect width="6" height="6"/></g>
<g transform="translate(764.66666666667,940.66666666667) scale(2.7466666666667)"><rect width="6" height="6"/></g>
<g transform="translate(796.66666666667,940.66666666667) scale(2.7466666666667)"><rect width="6" height="6"/></g>
<g transform="translate(828.66666666667,940.66666666667) scale(2.7466666666667)"><rect width="6" height="6"/></g>
<g transform="translate(844.66666666667,940.66666666667) scale(2.7466666666667)"><rect width="6" height="6"/></g>
<g transform="translate(860.66666666667,940.66666666667) scale(2.7466666666667)"><rect width="6" height="6"/></g>
<g transform="translate(876.66666666667,940.66666666667) scale(2.7466666666667)"><rect width="6" height="6"/></g>
<g transform="translate(908.66666666667,940.66666666667) scale(2.7466666666667)"><rect width="6" height="6"/></g>
<g transform="translate(300.66666666667,300.66666666667)"><g transform="scale(8)"><path d="M14,0H4.4C2,0,0,2,0,4.4V14h14V0z M2,12V4.8C2,3.3,3.3,2,4.8,2H12v10H2z"/></g></g>
<g transform="translate(844.66666666667,300.66666666667)"><g transform="scale(8) rotate(90 7 7)"><path d="M14,0H4.4C2,0,0,2,0,4.4V14h14V0z M2,12V4.8C2,3.3,3.3,2,4.8,2H12v10H2z"/></g></g>
<g transform="translate(300.66666666667,844.66666666667)"><g transform="scale(8) rotate(-90 7 7)"><path d="M14,0H4.4C2,0,0,2,0,4.4V14h14V0z M2,12V4.8C2,3.3,3.3,2,4.8,2H12v10H2z"/></g></g>
<g transform="translate(332.66666666667,332.66666666667)"><g transform="scale(8)"><rect width="6" height="6"/></g></g>
<g transform="translate(876.66666666667,332.66666666667)"><g transform="scale(8)"><rect width="6" height="6"/></g></g>
<g transform="translate(332.66666666667,876.66666666667)"><g transform="scale(8)"><rect width="6" height="6"/></g></g>
</g><g transform="translate(300.66666666667,1044.304730473) scale(1.0825082508251)"><path fill="#FFFFFF" d="M2.1,50l52,0l1,19.8l-1.8,0q-4.2-10.1-8.8-13.85t-13.5-3.75l-3.5,0l0,30.9l3.4,0q4.7,0,7.9-3.55t4.5-9.55l1.5,0l0,29.6l-1.7,0q-1.8-7.5-4.85-10.7t-8.35-3.2l-2.4,0l0,32.1l3.8,0q9.2,0,15.65-5.5t8.85-14.1l2,0l-0.8,21.8l-54.9,0l0-2.2l5.9,0l0-65.6l-5.9,0l0-2.2z M94.9,118.9q5,0,8.85-2.7t3.85-8.15t-4.15-8.35t-11.8-5.05t-11.1-3.75t-6.55-4.2q-6.2-5.2-6.2-16.1q0-8.9,6.35-15.3t17.35-6.4q5.3,0,11.05,1.55t7.15,1.55t2.5-2l1.1,0l0.7,20.2l-1.6,0q-4.8-8.7-10.05-13.95t-11.4-5.25t-9.55,2.85t-3.4,7.6t4.05,7.3t9.95,4.15t7.75,2.2t4.6,1.65t4.5,2.2t3.7,2.9t3.05,3.85q2.7,4.8,2.7,11.4q0,10.8-6.75,17.35t-17.75,6.55q-5.7,0-13.05-1.5t-8.15-1.5q-1.4,0-2.7,3l-1.4,0l-1-23.8l1.7,0q4.4,8.7,11.25,15.2t14.45,6.5z M162.4,50.9q-15.5,0-15.5,29.9l0,7.9q0,14.2,4.1,22.25t12.1,8.05q11,0,20.2-21.4l1.8,0l-0.7,22.3l-1.1,0q-0.6-1.1-1.1-1.55t-1.45-0.45t-7.25,1.55t-12.8,1.55q-16.3,0-25.25-8.8t-8.95-26.45t9.35-27.25t25.15-9.6q6.1,0,11.95,1.55t6.85,1.55t1.5-0.45t1.1-1.55l1.1,0l0.8,21.7l-1.8,0q-4.5-10.1-9.25-15.45t-10.85-5.35z M234.6,118.1l-7.3-21.6l-19.8,0l-7.7,21.6l7.5,0l0,1.9l-15.3,0l0-1.9l4.7,0l25.5-68.7l8.2,0l25.2,68.7l4.6,0l0,1.9l-32.7,0l0-1.9l7.1,0z M217.8,68.1l-9.4,26.2l18.1,0z M319.8,51.9l0,68.1l-14,0l-34.3-64.7l0,62.8l5.5,0l0,1.9l-13.7,0l0-1.9l5.5,0l0-66.2l-5.5,0l0-1.9l27.6,0l26.2,50.2l0-48.3l-5.5,0l0-1.9l13.7,0l0,1.9l-5.5,0z M329.9,50l52,0l1,19.8l-1.8,0q-4.2-10.1-8.8-13.85t-13.5-3.75l-3.5,0l0,30.9l3.4,0q4.7,0,7.9-3.55t4.5-9.55l1.5,0l0,29.6l-1.7,0q-1.8-7.5-4.85-10.7t-8.35-3.2l-2.4,0l0,32.1l3.8,0q9.2,0,15.65-5.5t8.85-14.1l2,0l-0.8,21.8l-54.9,0l0-2.2l5.9,0l0-65.6l-5.9,0l0-2.2z M348.5,45.7l11.5-16.2l4.8,0.4q2.5,0.2,3.65,1.5t1.15,3q0,4-4.4,5.8l-15.9,6.5z M433.4,118.1l-7.3-21.6l-19.8,0l-7.7,21.6l7.5,0l0,1.9l-15.3,0l0-1.9l4.7,0l25.5-68.7l8.2,0l25.2,68.7l4.6,0l0,1.9l-32.7,0l0-1.9l7.1,0z M416.6,68.1l-9.4,26.2l18.1,0z M514.4,50l26.7,0l0,1.9l-5.5,0l0,66.2l5.5,0l0,1.9l-30.5,0l0-1.9l5.5,0l0-62.5l-0.4,0l-15,64.4l-12.5,0l-17.6-64.7l-0.4,0l0,62.8l5.5,0l0,1.9l-13.6,0l0-1.9l5.5,0l0-66.2l-5.5,0l0-1.9l27,0l13.3,51.5z M545.7,50l52,0l1,19.8l-1.8,0q-4.2-10.1-8.8-13.85t-13.5-3.75l-3.5,0l0,30.9l3.4,0q4.7,0,7.9-3.55t4.5-9.55l1.5,0l0,29.6l-1.7,0q-1.8-7.5-4.85-10.7t-8.35-3.2l-2.4,0l0,32.1l3.8,0q9.2,0,15.65-5.5t8.85-14.1l2,0l-0.8,21.8l-54.9,0l0-2.2l5.9,0l0-65.6l-5.9,0l0-2.2z"/></g></svg>
